<?xml version="1.0" encoding="utf-8"?>
<!-- Generator: Adobe Illustrator 16.0.0, SVG Export Plug-In . SVG Version: 6.00 Build 0)  -->
<!DOCTYPE svg PUBLIC "-//W3C//DTD SVG 1.1//EN" "http://www.w3.org/Graphics/SVG/1.1/DTD/svg11.dtd">
<svg version="1.1" id="Capa_1" xmlns="http://www.w3.org/2000/svg" xmlns:xlink="http://www.w3.org/1999/xlink" x="0px" y="0px"
	 width="21px" height="21px" viewBox="0 0 21 21" enable-background="new 0 0 21 21" xml:space="preserve">
<g>
	<g>
		<g>
			<path fill="#FFFFFF" d="M11.67,4.734L9.015,9.33L9.013,9.334l-0.396,0.688L8.605,10.04c-0.017,0.024-0.033,0.047-0.048,0.069
				L5.03,16.208H2.187c0.929,0,1.684,0.754,1.684,1.685c0,0.15-0.019,0.297-0.055,0.437c-0.079,0.287-0.23,0.546-0.434,0.749
				l-0.003,0.004c-0.305,0.304-0.726,0.492-1.191,0.492c-0.93,0-1.684-0.752-1.684-1.682c0-0.273,0.066-0.534,0.183-0.762
				l0.104-0.182l0.005-0.01l0.423-0.731l2.19-3.791l2.402-4.158l0.004-0.003C5.915,8.121,6,7.974,6.067,7.816l0.005-0.009
				C6.187,7.541,6.25,7.247,6.25,6.939c0-1.218-0.988-2.205-2.205-2.205V1.426c2.262,0,4.205,1.359,5.055,3.309H11.67z"/>
		</g>
		<g>
			<polygon fill="#FFFFFF" points="16.677,4.734 10.045,16.208 6.227,16.208 12.853,4.734 			"/>
		</g>
		<g>
			<path fill="#FFFFFF" d="M20.497,6.416c0,0.239-0.051,0.467-0.14,0.675l-0.003,0.007l-0.001,0.005L20.167,7.42l-0.004,0.005
				l-5.076,8.783h-2.852c0.93,0,1.683,0.754,1.683,1.685c0,0.15-0.019,0.297-0.055,0.437l-0.002,0.003
				c-0.079,0.286-0.228,0.543-0.432,0.746l-0.004,0.004c-0.304,0.304-0.726,0.492-1.19,0.492c-0.931,0-1.684-0.752-1.684-1.682
				c0-0.262,0.059-0.51,0.165-0.73l0.123-0.213l0.005-0.006l0.001-0.002l0.423-0.733l5.928-10.263V5.943l0.395-0.686l0.002-0.001
				l0.303-0.522h0.917C19.743,4.734,20.497,5.486,20.497,6.416z"/>
		</g>
	</g>
</g>
</svg>
