<svg width="41" height="41" viewBox="0 0 41 41" fill="none" xmlns="http://www.w3.org/2000/svg">
<g clip-path="url(#clip0)">
<path d="M22.8982 5.86508L17.4536 16.2477L17.4495 16.2568L16.6374 17.811L16.6128 17.8517C16.578 17.9059 16.5451 17.9579 16.5144 18.0076L9.28152 31.7856H3.45135C5.35646 31.7856 6.90475 33.4889 6.90475 35.5921C6.90475 35.931 6.86578 36.2631 6.79196 36.5793C6.62995 37.2277 6.32029 37.8128 5.90195 38.2714L5.8958 38.2804C5.27033 38.9672 4.40698 39.3919 3.4534 39.3919C1.54624 39.3919 0 37.6931 0 35.5921C0 34.9754 0.135347 34.3858 0.37528 33.8707L0.588554 33.4596L0.598808 33.437L1.46626 31.7856L5.95732 23.2215L10.8831 13.8283L10.8913 13.8215C11.0964 13.5165 11.2707 13.1845 11.4081 12.8275L11.4184 12.8072C11.6542 12.2063 11.7834 11.5421 11.7834 10.8463C11.7834 8.09478 9.75729 5.86508 7.26157 5.86508V-1.60791C11.9003 -1.60791 15.8848 1.46216 17.6279 5.86734H22.8982V5.86508Z" fill="black"/>
<path d="M33.166 5.86523L19.5657 31.7858H11.7361L25.3241 5.86523H33.166Z" fill="black"/>
<path d="M40.9999 9.66498C40.9999 10.2049 40.8953 10.72 40.7128 11.1899L40.7066 11.2057L40.7046 11.217L40.3232 11.9331L40.315 11.9444L29.9055 31.7858H24.0569C25.9641 31.7858 27.5083 33.4891 27.5083 35.5923C27.5083 35.9311 27.4693 36.2632 27.3955 36.5795L27.3914 36.5863C27.2294 37.2324 26.9238 37.813 26.5055 38.2715L26.4973 38.2806C25.8738 38.9673 25.0084 39.392 24.0569 39.392C22.1477 39.392 20.6035 37.6932 20.6035 35.5923C20.6035 35.0004 20.7245 34.4402 20.9419 33.9432L21.1941 33.462L21.2044 33.4484L21.2064 33.4439L22.0739 31.788L34.2305 8.60322V8.59644L35.0405 7.04673L35.0446 7.04447L35.666 5.86523H37.5465C39.4537 5.86523 40.9999 7.56405 40.9999 9.66498Z" fill="black"/>
</g>
<defs>
<clipPath id="clip0">
<rect width="41" height="41" fill="white"/>
</clipPath>
</defs>
</svg>
