<svg width="144" height="41" viewBox="0 0 144 41" fill="none" xmlns="http://www.w3.org/2000/svg">
<path d="M22.8995 7.47609L17.454 17.8574L17.4521 17.8638L16.6404 19.4171L16.6135 19.4616C16.5769 19.5146 16.5481 19.5697 16.5154 19.6184L9.28292 33.3966H3.45465C5.36086 33.3966 6.90737 35.0982 6.90737 37.2003C6.90737 37.5394 6.86698 37.87 6.79196 38.1857C6.63231 38.8363 6.3207 39.419 5.90329 39.8789L5.8956 39.8873C5.27045 40.5739 4.40679 40.9998 3.45272 40.9998C1.54844 40.9998 0 39.3025 0 37.2003C0 36.5837 0.134647 35.9967 0.373163 35.4818L0.586675 35.0686L0.598216 35.0474L1.4638 33.3966L5.961 24.8334L10.8852 15.4375L10.8929 15.4311C11.0987 15.1281 11.2718 14.7933 11.4123 14.4373L11.42 14.4182C11.6565 13.8164 11.7854 13.1531 11.7854 12.4559C11.7854 9.70536 9.75995 7.47397 7.26322 7.47397V0C11.9008 0 15.8844 3.07478 17.6291 7.47397H22.8995V7.47609Z" fill="#FF222F"/>
<path d="M33.1654 7.47607L19.568 33.3966H11.7412L25.3251 7.47607H33.1654Z" fill="#FF222F"/>
<path d="M41 11.2756C41 11.8159 40.8961 12.3309 40.7153 12.7992L40.7095 12.8161L40.7038 12.8289L40.3229 13.5451L40.3152 13.5536L29.9051 33.3966H24.0576C25.9619 33.3966 27.5103 35.0982 27.5103 37.2003C27.5103 37.5394 27.4719 37.8699 27.3949 38.1857L27.3911 38.1942C27.2314 38.8405 26.9237 39.419 26.5043 39.8788L26.4986 39.8873C25.8734 40.5739 25.0098 40.9998 24.0557 40.9998C22.1495 40.9998 20.603 39.3024 20.603 37.2003C20.603 36.6091 20.7241 36.0497 20.9415 35.5538L21.1916 35.0685L21.2031 35.0558L21.205 35.0516L22.0745 33.3966L34.2292 10.2118V10.2076L35.039 8.66064L35.0429 8.6564L35.6641 7.47607H37.5473C39.4535 7.47607 41 9.17557 41 11.2756Z" fill="#FF222F"/>
<path d="M81.2073 17.4L84.014 13.2537H78.0234H76.1269H76.12V13.2596H76.1165H73.6005L73.6074 13.2537H65.7168L65.7133 13.2596H63.1973H57.3175C56.0577 13.2596 54.9572 13.8266 54.3516 14.6771L54.2581 14.8041L53.8601 15.4095L41.6366 33.4628H49.5168L59.2486 19.0922H61.7715L52.0432 33.4628H59.9234L69.6552 19.0922H72.1746L62.4464 33.4628H70.3231L80.0583 19.0922L81.2073 17.4Z" fill="#030202"/>
<path d="M118.816 23.4138L120.273 21.2609H112.379L110.925 23.4138L109.544 25.4604H110.97L111.97 25.4781L110.531 27.6074H105.568L107.014 25.4663L107.021 25.4604L108.409 23.4138L109.863 21.2609L109.876 21.2432L111.323 19.1109H121.723L122.498 17.9651L122.865 17.4187L124.225 15.4253L125.692 13.2546H107.392L105.942 15.4076L105.935 15.4135L103.432 19.1109L102.782 20.0619L101.986 21.2432V21.2609H101.979L100.522 23.4138L97.6737 27.6252L93.7284 33.4431L101.616 33.449L104.128 33.4549L112.008 33.4608L115.954 27.634L118.816 23.4138Z" fill="#030202"/>
<path d="M143.872 15.4208C143.46 14.1716 142.114 13.259 140.519 13.259H128.219L126.762 15.406L126.758 15.409L124.267 19.0917L123.613 20.0633L122.803 21.2564L119.965 25.4619L114.545 33.4622H122.429L127.849 25.4619H130.368L124.952 33.4622H132.836L141.1 21.2476L143.311 17.9901L143.318 17.9783L143.713 17.4024C143.903 17.0362 144 16.6405 144 16.2211C143.997 15.9435 143.952 15.6748 143.872 15.4208ZM133.216 21.2446L133.202 21.2564H130.69L130.7 21.2387L132.154 19.0887H134.673L133.216 21.2446Z" fill="#030202"/>
<path d="M87.2431 27.6252H84.7271L84.7374 27.6074L86.1944 25.4604H96.5907L99.4424 21.255H89.0392L90.4928 19.105L90.5066 19.0844L93.0157 19.0873L100.903 19.0932L101.661 17.9739L102.055 17.3981L104.848 13.2724L98.636 13.2665H96.9575L94.4519 13.2605L86.5613 13.2546L85.1112 15.4017L82.6852 18.9839L82.6021 19.105L81.159 21.2343L78.3038 25.4604L77.9647 25.9625L76.8434 27.6193L72.9015 33.4372L72.8877 33.4549H80.7714L80.7852 33.4431H83.2978L91.178 33.4549L95.1268 27.6281L87.2431 27.6252Z" fill="#030202"/>
<path d="M43.1976 36.7555L42.3705 39H41.2769L42.1005 36.7555H41L41.2769 35.9995H44.575L44.2981 36.7555H43.1976V36.7555Z" fill="#030202"/>
<path d="M57.9819 39L59.0859 35.9995H60.2107L59.1032 39H57.9819Z" fill="#030202"/>
<path d="M75.6253 36.7349L75.4696 37.1454H76.9023L76.6566 37.8246H75.2204L75.0577 38.2735H76.8608L76.5943 39H73.7461L74.8501 35.9995H77.7018L77.4353 36.7319H75.6253V36.7349Z" fill="#030202"/>
<path d="M94.4898 39H93.3858L92.8598 37.361L92.2507 39H91.1882L92.2888 35.9995H93.3997L93.9257 37.6268L94.5279 35.9995H95.5904L94.4898 39Z" fill="#030202"/>
<path d="M111.787 35.9995C112.15 35.9995 112.469 36.0527 112.742 36.1501C113.005 36.2417 113.209 36.3805 113.331 36.5547L112.621 38.4862C112.479 38.6545 112.268 38.7756 111.991 38.8671C111.718 38.9528 111.41 39 111.067 39H109.133L110.24 35.9995H111.787V35.9995ZM110.5 38.2735H111.033C111.292 38.2735 111.503 38.2263 111.655 38.1465L112.137 36.853C112.005 36.7733 111.818 36.7319 111.576 36.7319H111.067L110.5 38.2735Z" fill="#030202"/>
<path d="M130.302 39H129.295L129.34 38.4359H128.247L127.88 39H126.755L128.845 35.9995H130.406L130.302 39ZM129.489 36.5547L128.697 37.7537H129.392L129.489 36.5547Z" fill="#030202"/>
<path d="M59.8059 10.2474L59.529 10.9916H56.7881L57.8921 8H58.9857L58.1516 10.2474H59.8059Z" fill="#030202"/>
<path d="M70.2367 10.9916H69.2296L69.2746 10.4335H68.1845L67.8176 10.9916H66.6929L68.7832 8H70.3406L70.2367 10.9916ZM69.4269 8.55226L68.6344 9.75128H69.33L69.4269 8.55226Z" fill="#030202"/>
</svg>
