<svg width="108" height="41" viewBox="0 0 108 41" fill="none" xmlns="http://www.w3.org/2000/svg">
<path d="M42.1596 12.4326L45.1025 6.94873H38.8211H36.8325H36.8253V6.95654H36.8217H34.1835L34.1908 6.94873H25.9172L25.9136 6.95654H23.2755H17.1102C15.7893 6.95654 14.6354 7.70648 14.0003 8.83138L13.9023 8.99933L13.485 9.80005L0.668213 33.6769H8.93093L19.135 14.6707H21.7804L11.5799 33.6769H19.8426L30.0467 14.6707H32.6885L22.488 33.6769H30.7471L40.9548 14.6707L42.1596 12.4326Z" fill="black"/>
<path d="M81.593 20.3894L83.1208 17.542H74.8435L73.3195 20.3894L71.8716 23.0962H73.3666L74.4153 23.1197L72.9058 25.9358H67.7021L69.2189 23.1041L69.2262 23.0962L70.6813 20.3894L72.2054 17.542L72.2199 17.5186L73.7368 14.6985H84.6412L85.4541 13.183L85.8387 12.4605L87.2648 9.82397L88.8034 6.95312H69.6145L68.094 9.80053L68.0868 9.80835L65.4632 14.6985L64.781 15.9562L63.9463 17.5186V17.542H63.9391L62.4114 20.3894L59.4249 25.9593L55.2881 33.6539L63.5581 33.6617L66.1925 33.6695L74.4553 33.6773L78.5921 25.971L81.593 20.3894Z" fill="black"/>
<path d="M107.866 9.81567C107.434 8.16347 106.022 6.95654 104.349 6.95654H91.4527L89.925 9.79614L89.9214 9.80004L87.3087 14.6707L86.6229 15.9558L85.7737 17.5337L82.7981 23.0958L77.1155 33.6769H85.3818L91.0645 23.0958H93.7062L88.0272 33.6769H96.2935L104.959 17.522L107.278 13.2138L107.285 13.1982L107.699 12.4365C107.898 11.9522 108 11.4288 108 10.8742C107.996 10.507 107.949 10.1516 107.866 9.81567ZM96.6927 17.5181L96.6782 17.5337H94.0437L94.0546 17.5103L95.5787 14.6668H98.2204L96.6927 17.5181Z" fill="black"/>
<path d="M48.4879 25.9593H45.8498L45.8607 25.9358L47.3884 23.0962H58.2892L61.2793 17.5342H50.3713L51.8953 14.6907L51.9098 14.6634L54.5407 14.6673L62.8107 14.6751L63.6054 13.1948L64.0191 12.4331L66.9475 6.97656L60.4338 6.96875H58.6739L56.0467 6.96094L47.7731 6.95312L46.2526 9.79272L43.7088 14.5306L43.6218 14.6907L42.1085 17.5069L39.1148 23.0962L38.7592 23.7602L37.5835 25.9515L33.4503 33.6461L33.4358 33.6695H41.7021L41.7166 33.6539H44.3511L52.6138 33.6695L56.7543 25.9632L48.4879 25.9593Z" fill="black"/>
<path d="M2.30427 38.0314L1.43699 40.9999H0.290301L1.15395 38.0314H0L0.290301 37.0315H3.74851L3.45821 38.0314H2.30427V38.0314Z" fill="black"/>
<path d="M17.8059 40.9999L18.9635 37.0315H20.1428L18.9816 40.9999H17.8059Z" fill="black"/>
<path d="M36.3059 38.0041L36.1426 38.547H37.6449L37.3873 39.4453H35.8813L35.7108 40.039H37.6013L37.3219 40.9999H34.3354L35.493 37.0315H38.4831L38.2037 38.0002H36.3059V38.0041Z" fill="black"/>
<path d="M56.0861 40.9999H54.9285L54.377 38.8321L53.7383 40.9999H52.6243L53.7782 37.0315H54.9431L55.4946 39.1836L56.126 37.0315H57.2401L56.0861 40.9999Z" fill="black"/>
<path d="M74.2227 37.0315C74.6037 37.0315 74.9376 37.1018 75.2243 37.2307C75.5001 37.3518 75.7141 37.5354 75.8412 37.7658L75.0973 40.3203C74.9485 40.5429 74.7271 40.703 74.4368 40.8241C74.1501 40.9374 73.8272 40.9999 73.4679 40.9999H71.4395L72.6007 37.0315H74.2227V37.0315ZM72.8728 40.039H73.4316C73.7038 40.039 73.9252 39.9765 74.0848 39.8711L74.5892 38.1603C74.4513 38.0548 74.2554 38.0002 74.0014 38.0002H73.4679L72.8728 40.039Z" fill="black"/>
<path d="M93.636 40.9999H92.58L92.6272 40.2539H91.4805L91.0958 40.9999H89.9165L92.1083 37.0315H93.7449L93.636 40.9999ZM92.7832 37.7658L91.9522 39.3516H92.6816L92.7832 37.7658Z" fill="black"/>
<path d="M19.7202 2.9724L19.4299 3.95668H16.5559L17.7135 0H18.8602L17.9856 2.9724H19.7202Z" fill="black"/>
<path d="M30.6578 3.95668H29.6018L29.649 3.21847H28.5059L28.1212 3.95668H26.9419L29.1337 0H30.7666L30.6578 3.95668ZM29.8086 0.730404L28.9776 2.3162H29.707L29.8086 0.730404Z" fill="black"/>
</svg>
