<?xml version="1.0" encoding="utf-8"?>
<!-- Generator: Adobe Illustrator 16.0.0, SVG Export Plug-In . SVG Version: 6.00 Build 0)  -->
<!DOCTYPE svg PUBLIC "-//W3C//DTD SVG 1.1//EN" "http://www.w3.org/Graphics/SVG/1.1/DTD/svg11.dtd">
<svg version="1.1" id="Capa_1" xmlns="http://www.w3.org/2000/svg" xmlns:xlink="http://www.w3.org/1999/xlink" x="0px" y="0px"
	 width="108px" height="21px" viewBox="0 0 108 21" enable-background="new 0 0 108 21" xml:space="preserve">
<g>
	<g>
		<g>
			<path fill="#FFFFFF" d="M12.606,4.766L9.775,9.665L9.774,9.668l-0.422,0.733l-0.014,0.021c-0.019,0.025-0.034,0.051-0.051,0.074
				l-3.76,6.502H2.497c0.991,0,1.795,0.803,1.795,1.795c0,0.16-0.021,0.316-0.06,0.465c-0.083,0.307-0.245,0.582-0.462,0.799
				l-0.004,0.004c-0.325,0.324-0.774,0.525-1.27,0.525c-0.99,0-1.795-0.801-1.795-1.793c0-0.291,0.07-0.568,0.194-0.811l0.111-0.195
				l0.006-0.01l0.45-0.779L3.8,12.957L6.36,8.523L6.364,8.52c0.107-0.143,0.197-0.301,0.27-0.469l0.004-0.009
				c0.123-0.284,0.19-0.597,0.19-0.926c0-1.298-1.053-2.351-2.351-2.351V1.238c2.411,0,4.482,1.451,5.389,3.527H12.606z"/>
		</g>
		<g>
			<polygon fill="#FFFFFF" points="17.943,4.766 10.874,16.998 6.805,16.998 13.867,4.766 			"/>
		</g>
		<g>
			<path fill="#FFFFFF" d="M22.016,6.559c0,0.255-0.054,0.498-0.148,0.719l-0.003,0.008l-0.003,0.006l-0.198,0.338L21.66,7.634
				l-5.412,9.364h-3.04c0.99,0,1.795,0.803,1.795,1.795c0,0.16-0.02,0.316-0.06,0.465l-0.002,0.004
				c-0.083,0.305-0.243,0.578-0.461,0.795l-0.003,0.004c-0.325,0.324-0.774,0.525-1.27,0.525c-0.991,0-1.795-0.801-1.795-1.793
				c0-0.279,0.063-0.543,0.176-0.777l0.13-0.229l0.006-0.006l0.001-0.002l0.452-0.781l6.319-10.941V6.055l0.421-0.73l0.002-0.002
				l0.323-0.557h0.979C21.212,4.766,22.016,5.568,22.016,6.559z"/>
		</g>
	</g>
	<g>
		<g>
			<path fill="#FFFFFF" d="M32.788,9.307l0.811-1.404h-1.731H31.32h-0.002v0.002h-0.001h-0.727l0.002-0.002h-2.28l-0.001,0.002
				h-0.727h-1.699c-0.364,0-0.682,0.192-0.857,0.48l-0.027,0.043l-0.115,0.205l-3.532,6.113h2.277l2.812-4.866h0.729l-2.811,4.866
				h2.277L29.45,9.88h0.728l-2.811,4.866h2.276l2.813-4.866L32.788,9.307z"/>
		</g>
		<g>
			<polygon fill="#FFFFFF" points="43.655,11.344 44.076,10.615 41.795,10.615 41.375,11.344 40.976,12.037 41.388,12.037 
				41.677,12.043 41.261,12.764 39.827,12.764 40.245,12.039 40.247,12.037 40.648,11.344 41.068,10.615 41.072,10.609 41.49,9.887 
				44.495,9.887 44.719,9.499 44.825,9.314 45.218,8.639 45.642,7.904 40.354,7.904 39.935,8.633 39.933,8.635 39.21,9.887 
				39.022,10.209 38.792,10.609 38.792,10.615 38.79,10.615 38.369,11.344 37.546,12.77 36.406,14.74 38.685,14.742 39.411,14.744 
				41.688,14.746 42.828,12.773 			"/>
		</g>
		<g>
			<path fill="#FFFFFF" d="M50.895,8.637c-0.119-0.423-0.508-0.732-0.969-0.732h-3.554l-0.421,0.727L45.95,8.633L45.23,9.88
				l-0.189,0.329l-0.234,0.404l-0.82,1.424l-1.566,2.709h2.278l1.566-2.709h0.728l-1.565,2.709h2.278l2.388-4.136l0.639-1.103
				l0.002-0.004l0.114-0.195c0.055-0.124,0.083-0.258,0.083-0.4C50.931,8.814,50.918,8.723,50.895,8.637z M47.816,10.609
				l-0.004,0.004h-0.726l0.003-0.006l0.42-0.728h0.728L47.816,10.609z"/>
		</g>
		<g>
			<polygon fill="#FFFFFF" points="34.532,12.77 33.805,12.77 33.808,12.764 34.229,12.037 37.233,12.037 38.057,10.613 
				35.051,10.613 35.471,9.885 35.475,9.878 36.2,9.879 38.479,9.881 38.479,9.881 38.698,9.502 38.812,9.307 39.619,7.91 
				37.824,7.908 37.339,7.908 36.615,7.906 34.335,7.904 33.916,8.631 33.215,9.844 33.191,9.885 32.774,10.606 31.949,12.037 
				31.851,12.207 31.527,12.768 30.388,14.738 30.384,14.744 32.662,14.744 32.666,14.74 33.392,14.74 35.669,14.744 36.81,12.771 
							"/>
		</g>
	</g>
	<g>
		<path fill="#FFFFFF" d="M21.805,15.861l-0.239,0.76H21.25l0.238-0.76H21.17l0.08-0.256h0.953l-0.08,0.256H21.805z"/>
		<path fill="#FFFFFF" d="M26.077,16.621l0.319-1.016h0.325l-0.32,1.016H26.077z"/>
		<path fill="#FFFFFF" d="M31.175,15.854l-0.045,0.139h0.414l-0.071,0.23h-0.415l-0.047,0.152h0.521l-0.077,0.246h-0.823
			l0.319-1.016h0.824l-0.077,0.248H31.175z"/>
		<path fill="#FFFFFF" d="M36.626,16.621h-0.319l-0.152-0.555l-0.176,0.555h-0.307l0.318-1.016h0.321l0.152,0.551l0.174-0.551h0.307
			L36.626,16.621z"/>
		<path fill="#FFFFFF" d="M41.624,15.605c0.105,0,0.197,0.018,0.276,0.051c0.076,0.031,0.135,0.078,0.17,0.137l-0.205,0.654
			c-0.041,0.057-0.102,0.098-0.182,0.129c-0.079,0.029-0.168,0.045-0.267,0.045h-0.559l0.32-1.016H41.624z M41.252,16.375h0.154
			c0.075,0,0.136-0.016,0.18-0.043l0.139-0.438c-0.038-0.027-0.092-0.041-0.162-0.041h-0.147L41.252,16.375z"/>
		<path fill="#FFFFFF" d="M46.974,16.621h-0.291l0.013-0.191H46.38l-0.106,0.191h-0.325l0.604-1.016h0.451L46.974,16.621z
			 M46.739,15.793l-0.229,0.406h0.201L46.739,15.793z"/>
	</g>
	<g>
		<path fill="#FFFFFF" d="M26.604,6.885l-0.08,0.252h-0.792l0.319-1.013h0.316l-0.241,0.761H26.604z"/>
		<path fill="#FFFFFF" d="M29.618,7.137h-0.291l0.013-0.189h-0.315l-0.106,0.189h-0.325l0.604-1.013h0.45L29.618,7.137z
			 M29.384,6.311l-0.229,0.406h0.201L29.384,6.311z"/>
	</g>
</g>
</svg>
