<svg width="716" height="1199" viewBox="0 0 716 1199" fill="none" xmlns="http://www.w3.org/2000/svg">
<path d="M16.0057 68.9292L8.60784 67.6958C8.53989 68.1034 8.50574 68.5158 8.50573 68.929L16.0057 68.9292ZM16.0057 68.9292C8.60784 67.6958 8.60836 67.6927 8.60892 67.6893L8.61022 67.6816L8.61347 67.6624L8.62261 67.6092C8.62988 67.5672 8.63955 67.5123 8.65172 67.4447C8.67605 67.3097 8.71039 67.1243 8.75559 66.8919C8.84598 66.4272 8.97999 65.7735 9.16455 64.9578C9.53327 63.3281 10.1061 61.0411 10.9396 58.3139C12.5982 52.8871 15.3321 45.5752 19.638 38.1946C28.2605 23.4154 43.8051 7.51622 69.9252 7.50703C92.3946 7.49912 227.202 7.49912 356.389 7.5011C420.984 7.50209 484.174 7.50357 531.215 7.5048L587.823 7.50638L603.587 7.50685L607.73 7.50698L608.791 7.50701L609.059 7.50702L609.127 7.50703L609.144 7.50703C609.148 7.50703 609.15 7.50703 609.149 15.007M16.0057 68.9292C8.50573 68.929 8.50573 68.9328 8.50573 68.9402L8.50573 68.9738L8.50573 69.1075L8.50572 69.6392L8.50568 71.7409L8.50553 79.9451L8.50497 111.142L8.50311 222.966C8.50166 315.782 8.49991 440.192 8.49875 566.57C8.49642 819.323 8.49642 1079.95 8.50573 1111.43C8.5158 1145.45 23.2627 1165.57 38.4748 1176.98C45.9474 1182.58 53.39 1185.99 58.9612 1187.99C61.7559 1189 64.1077 1189.67 65.7971 1190.09C66.6427 1190.3 67.3251 1190.45 67.8172 1190.55C68.0634 1190.6 68.2623 1190.64 68.4105 1190.67C68.4846 1190.68 68.546 1190.69 68.5944 1190.7L68.6572 1190.71L68.6811 1190.72L68.6912 1190.72C68.6958 1190.72 68.7001 1190.72 69.9279 1183.32L68.7001 1190.72C69.1059 1190.79 69.5165 1190.82 69.9279 1190.82H609.149C626.405 1190.82 639.417 1185.85 648.945 1177.82C658.363 1169.89 663.77 1159.5 666.86 1149.61C669.948 1139.73 670.842 1129.98 670.991 1122.81C671.066 1119.2 670.954 1116.19 670.82 1114.05C670.753 1112.97 670.681 1112.12 670.623 1111.52C670.604 1111.32 670.586 1111.15 670.571 1111.01V68.9292C670.571 42.8263 654.668 27.2818 639.891 18.656C632.511 14.3477 625.198 11.6099 619.771 9.94795C617.043 9.11278 614.756 8.53845 613.126 8.16862C612.31 7.9835 611.656 7.84903 611.192 7.75832C610.959 7.71295 610.774 7.67848 610.639 7.65405C610.571 7.64184 610.516 7.63214 610.474 7.62483L610.421 7.61566L610.402 7.6124L610.394 7.6111C610.391 7.61054 610.388 7.61001 609.149 15.007M609.149 15.007L610.388 7.61001C609.979 7.54149 609.564 7.50704 609.15 7.50703L609.149 15.007Z" fill="white" stroke="black" stroke-width="15" stroke-linejoin="round"/>
<rect x="87.8945" y="158.791" width="503.273" height="826.806" fill="#9CDFF0"/>
<path d="M87.8945 769.91V787.884" stroke="black" stroke-width="15" stroke-linejoin="round"/>
<path d="M87.8945 841.803V985.596H591.168V302.582" stroke="black" stroke-width="15" stroke-linejoin="round"/>
<path d="M591.164 194.739V158.791" stroke="black" stroke-width="15" stroke-linejoin="round"/>
<path d="M285.617 86.8945H402.449" stroke="black" stroke-width="15" stroke-linejoin="round"/>
<path d="M87.8945 158.791V662.064" stroke="black" stroke-width="15" stroke-linejoin="round"/>
<path d="M87.8945 158.791L519.272 158.791" stroke="black" stroke-width="15" stroke-linejoin="round"/>
<path d="M672.055 149.809H708.003V257.653H672.055" stroke="black" stroke-width="15" stroke-linejoin="round"/>
<g clip-path="url(#clip0_709_11)">
<path d="M224.06 775.921C236.09 769.934 245.402 760.589 250.466 749.424L288.354 744.91L288.005 734.333C287.947 732.437 288.106 730.542 288.48 728.673L292.837 714.225L251.757 713.478C247.816 703.051 240.23 693.935 230.044 687.383C219.859 680.831 207.573 677.165 194.876 676.889C182.179 676.614 169.696 679.742 159.142 685.844C148.587 691.945 140.481 700.721 135.938 710.964C131.395 721.207 130.637 732.414 133.77 743.044C136.903 753.674 143.771 763.204 153.432 770.325C163.092 777.446 175.07 781.808 187.717 782.81C200.365 783.812 213.061 781.405 224.06 775.921V775.921ZM176.258 704.415C182.106 701.499 188.825 700.146 195.563 700.527C202.302 700.909 208.758 703.007 214.116 706.558C219.474 710.108 223.492 714.951 225.663 720.474C227.834 725.997 228.059 731.951 226.311 737.585C224.564 743.219 220.921 748.278 215.843 752.124C210.766 755.969 204.482 758.428 197.787 759.189C191.091 759.95 184.285 758.98 178.228 756.4C172.171 753.821 167.136 749.748 163.76 744.697C159.232 737.924 158.005 729.875 160.349 722.321C162.693 714.766 168.415 708.325 176.258 704.415V704.415Z" fill="#D9D9D9" stroke="black" stroke-width="15"/>
<path d="M478.961 602.026L469.511 596.029C461.752 591.028 451.786 591.247 437.66 596.716C429.752 599.807 417.208 605.858 402.552 617.464C389.667 627.678 324.296 680.49 305.632 715.692C296.804 732.344 302.216 746.057 306.609 757.053C310.589 767.105 313.716 775.055 308.241 786.033C301.907 798.675 295.073 806.543 291.356 810.286C276.972 808.442 262.298 811.078 249.959 817.722C237.62 824.367 228.421 834.587 224.009 846.553C219.597 858.519 220.259 871.451 225.877 883.034C231.495 894.617 241.702 904.096 254.672 909.774C267.642 915.452 282.529 916.959 296.668 914.025C310.806 911.091 323.275 903.908 331.842 893.761C340.409 883.613 344.516 871.164 343.427 858.641C342.339 846.118 336.126 834.338 325.901 825.41L478.961 602.026ZM350.116 740.331C347.777 741.497 345.089 742.038 342.394 741.886C339.698 741.733 337.116 740.894 334.973 739.474C332.83 738.053 331.222 736.116 330.354 733.907C329.486 731.698 329.395 729.316 330.094 727.063C330.794 724.809 332.251 722.786 334.282 721.247C336.313 719.709 338.826 718.726 341.504 718.421C344.182 718.117 346.905 718.505 349.328 719.537C351.75 720.568 353.764 722.198 355.115 724.218C356.926 726.927 357.417 730.147 356.48 733.169C355.542 736.19 353.253 738.767 350.116 740.331V740.331ZM299.21 888.296C293.361 891.212 286.643 892.565 279.904 892.184C273.165 891.802 266.709 889.703 261.351 886.153C255.994 882.602 251.975 877.76 249.805 872.237C247.634 866.714 247.408 860.759 249.156 855.126C250.904 849.492 254.547 844.433 259.624 840.587C264.701 836.742 270.985 834.283 277.68 833.522C284.376 832.76 291.182 833.731 297.239 836.31C303.296 838.89 308.331 842.963 311.707 848.014C316.235 854.787 317.462 862.836 315.119 870.39C312.775 877.945 307.052 884.386 299.21 888.296Z" fill="#D9D9D9" stroke="black" stroke-width="15"/>
<path d="M417.034 710.256L375.693 771.883L401.701 770.05L405.12 769.826C422.806 768.711 469.855 765.751 508.682 748.944C511.656 747.657 514.349 746.408 516.796 745.188C532.079 737.542 537.944 730.097 541.227 725.055L550.221 708.653L417.034 710.256Z" fill="#D9D9D9" stroke="black" stroke-width="15"/>
</g>
<rect x="134.316" y="205.217" width="119.06" height="104.87" rx="22.5" fill="#7CDA6D" stroke="black" stroke-width="15"/>
<rect x="282.816" y="205.217" width="119.06" height="104.87" rx="22.5" fill="#3980A3" stroke="black" stroke-width="15"/>
<rect x="431.379" y="205.217" width="119.06" height="104.87" rx="22.5" fill="#FFFAB0" stroke="black" stroke-width="15"/>
<rect x="134.316" y="349.008" width="119.06" height="104.87" rx="22.5" fill="#FF7462" stroke="black" stroke-width="15"/>
<rect x="282.816" y="349.008" width="119.06" height="104.87" rx="22.5" fill="#F14469" stroke="black" stroke-width="15"/>
<rect x="431.379" y="349.008" width="119.06" height="104.87" rx="22.5" fill="#058969" stroke="black" stroke-width="15"/>
<path d="M342.347 1118.91C374.154 1118.91 401.877 1096.43 401.877 1066.48C401.877 1036.52 374.154 1014.04 342.347 1014.04C310.539 1014.04 282.816 1036.52 282.816 1066.48C282.816 1096.43 310.539 1118.91 342.347 1118.91Z" fill="#FFF8D5" stroke="black" stroke-width="15"/>
<defs>
<clipPath id="clip0_709_11">
<rect width="422.942" height="393.202" fill="white" transform="matrix(0.89492 -0.446226 0.555761 0.831342 51.957 671.053)"/>
</clipPath>
</defs>
</svg>
