<svg width="41" height="41" viewBox="0 0 41 41" fill="none" xmlns="http://www.w3.org/2000/svg">
<path d="M22.8995 7.47609L17.454 17.8574L17.4521 17.8638L16.6404 19.4171L16.6135 19.4616C16.5769 19.5146 16.5481 19.5697 16.5154 19.6184L9.28292 33.3966H3.45465C5.36086 33.3966 6.90737 35.0982 6.90737 37.2003C6.90737 37.5394 6.86698 37.87 6.79196 38.1857C6.63231 38.8363 6.3207 39.419 5.90329 39.8789L5.8956 39.8873C5.27045 40.5739 4.40679 40.9998 3.45272 40.9998C1.54844 40.9998 0 39.3025 0 37.2003C0 36.5837 0.134647 35.9967 0.373163 35.4818L0.586675 35.0686L0.598216 35.0474L1.4638 33.3966L5.961 24.8334L10.8852 15.4375L10.8929 15.4311C11.0987 15.1281 11.2718 14.7933 11.4123 14.4373L11.42 14.4182C11.6565 13.8164 11.7854 13.1531 11.7854 12.4559C11.7854 9.70536 9.75995 7.47397 7.26322 7.47397V0C11.9008 0 15.8844 3.07478 17.6291 7.47397H22.8995V7.47609Z" fill="#FF222F"/>
<path d="M33.1654 7.47607L19.568 33.3966H11.7412L25.3251 7.47607H33.1654Z" fill="#FF222F"/>
<path d="M41 11.2756C41 11.8159 40.8961 12.3309 40.7153 12.7992L40.7095 12.8161L40.7038 12.8289L40.3229 13.5451L40.3152 13.5536L29.9051 33.3966H24.0576C25.9619 33.3966 27.5103 35.0982 27.5103 37.2003C27.5103 37.5394 27.4719 37.8699 27.3949 38.1857L27.3911 38.1942C27.2314 38.8405 26.9237 39.419 26.5043 39.8788L26.4986 39.8873C25.8734 40.5739 25.0098 40.9998 24.0557 40.9998C22.1495 40.9998 20.603 39.3024 20.603 37.2003C20.603 36.6091 20.7241 36.0497 20.9415 35.5538L21.1916 35.0685L21.2031 35.0558L21.205 35.0516L22.0745 33.3966L34.2292 10.2118V10.2076L35.039 8.66064L35.0429 8.6564L35.6642 7.47607H37.5473C39.4535 7.47607 41 9.17557 41 11.2756Z" fill="#FF222F"/>
</svg>
