<svg width="240" height="106" viewBox="0 0 240 106" fill="none" xmlns="http://www.w3.org/2000/svg">
<path d="M0.422262 5.40424C0.422262 4.75686 0.436338 4.27836 0.464488 3.96874C0.52079 3.63097 0.661544 3.25099 0.886751 2.82878C1.28086 2.06881 2.37874 1.68883 4.1804 1.68883C6.15095 1.68883 7.31921 2.20955 7.68517 3.25099C7.82593 3.72949 7.8963 4.46131 7.8963 5.44646V28.9211C7.8963 29.5966 7.86815 30.0892 7.81185 30.3988C7.7837 30.7085 7.65702 31.0744 7.43182 31.4966C7.0377 32.2565 5.93982 32.6365 4.13817 32.6365C2.16761 32.6365 1.01343 32.1017 0.67562 31.0321C0.506715 30.5818 0.422262 29.864 0.422262 28.8789V5.40424Z" fill="black"/>
<path d="M23.6398 10.3863C26.4548 10.3863 28.7914 11.4699 30.6493 13.6373C32.5354 15.7764 33.4785 18.3941 33.4785 21.4903V28.9211C33.4785 29.5685 33.4503 30.0611 33.394 30.3988C33.3659 30.7085 33.2533 31.0603 33.0562 31.4544C32.6621 32.2143 31.5642 32.5943 29.7626 32.5943C27.7639 32.5943 26.6097 32.0736 26.3 31.0321C26.1311 30.5536 26.0467 29.8359 26.0467 28.8789V21.4481C26.0467 20.294 25.7088 19.3933 25.0332 18.746C24.3858 18.0986 23.499 17.7749 22.373 17.7749C21.2751 17.7749 20.3743 18.1126 19.6705 18.7882C18.9949 19.4637 18.6571 20.3503 18.6571 21.4481V28.9211C18.6571 29.5685 18.6289 30.0611 18.5726 30.3988C18.5445 30.7085 18.4178 31.0603 18.1926 31.4544C17.8266 32.2143 16.7428 32.5943 14.9412 32.5943C13.1677 32.5943 12.0838 32.2143 11.6897 31.4544C11.4927 31.0321 11.366 30.6662 11.3097 30.3566C11.2815 30.0189 11.2675 29.5263 11.2675 28.8789V13.9328C11.2675 13.3136 11.2815 12.8491 11.3097 12.5395C11.366 12.2018 11.5068 11.8358 11.732 11.4418C12.1261 10.7381 13.2099 10.3863 14.9834 10.3863C16.7006 10.3863 17.7562 10.71 18.1503 11.3573C18.4319 11.8358 18.5726 12.4129 18.5726 13.0884C18.6852 12.8914 18.9386 12.6099 19.3327 12.244C19.7268 11.8781 20.1068 11.5825 20.4728 11.3573C21.4299 10.71 22.4856 10.3863 23.6398 10.3863Z" fill="black"/>
<path d="M58.0192 10.8929C59.483 11.7655 60.2149 12.6943 60.2149 13.6795C60.2149 14.2424 59.9334 15.0165 59.3704 16.0016L50.6296 30.9899C50.3481 31.4684 49.8977 31.9047 49.2783 32.2988C48.659 32.6647 48.0397 32.8476 47.4204 32.8476C46.8292 32.8476 46.2521 32.7069 45.6891 32.4254C45.1542 32.1158 44.7742 31.8062 44.549 31.4966L44.169 31.0321L35.3859 16.0016C34.8229 15.0728 34.5414 14.3128 34.5414 13.7217C34.5414 12.7084 35.2733 11.7655 36.7371 10.8929C37.8069 10.2737 38.6514 9.96407 39.2707 9.96407C39.89 9.96407 40.3686 10.1611 40.7064 10.5552C41.0724 10.9211 41.4524 11.484 41.8465 12.244L47.3782 22.8836L52.9098 12.244C53.2194 11.7092 53.4447 11.3292 53.5854 11.104C53.7543 10.8507 54.0077 10.6114 54.3455 10.3863C54.6833 10.1329 55.1337 10.0063 55.6967 10.0063C56.2597 10.0063 57.0339 10.3018 58.0192 10.8929Z" fill="black"/>
<path d="M82.6971 18.8726C82.6971 20.5896 82.2608 21.8703 81.3881 22.7147C80.5436 23.531 79.6005 23.9391 78.5589 23.9391H68.5513C68.5513 24.7272 69.0158 25.3887 69.9448 25.9235C70.8737 26.4582 71.8027 26.7256 72.7317 26.7256C74.3644 26.7256 75.6453 26.5568 76.5743 26.219L77.0388 26.0501C77.7144 25.7405 78.2774 25.5857 78.7278 25.5857C79.6287 25.5857 80.4028 26.219 81.0503 27.4856C81.4162 28.2456 81.5992 28.893 81.5992 29.4278C81.5992 31.9329 78.6012 33.1854 72.605 33.1854C70.5219 33.1854 68.6639 32.8336 67.0312 32.1299C65.4266 31.3981 64.1739 30.4411 63.273 29.2589C61.4995 26.979 60.6128 24.4317 60.6128 21.617C60.6128 18.0704 61.7529 15.2416 64.0331 13.1306C66.3415 10.9914 69.2128 9.92184 72.6472 9.92184C76.5602 9.92184 79.4316 11.3011 81.2614 14.0595C82.2185 15.5231 82.6971 17.1275 82.6971 18.8726ZM73.7874 20.097C74.8571 20.097 75.392 19.6467 75.392 18.746C75.392 18.0986 75.1386 17.5778 74.6319 17.1838C74.1533 16.7897 73.4495 16.5927 72.5206 16.5927C71.6197 16.5927 70.7189 16.9727 69.8181 17.7327C68.9173 18.4645 68.4669 19.2526 68.4669 20.097H73.7874Z" fill="black"/>
<path d="M100.569 10.6396C101.104 10.8085 101.54 11.104 101.878 11.5262C102.244 11.9203 102.427 12.5677 102.427 13.4684C102.427 14.3691 102.16 15.3542 101.625 16.4238C101.09 17.4934 100.316 18.0282 99.3022 18.0282C98.7955 18.0282 98.3029 17.9156 97.8243 17.6904C97.3739 17.4653 96.7687 17.3527 96.0086 17.3527C95.2485 17.3527 94.5307 17.6201 93.855 18.1549C93.2076 18.6897 92.8838 19.337 92.8838 20.097V28.9633C92.8838 29.6107 92.8557 30.1033 92.7994 30.4411C92.7712 30.7507 92.6446 31.1166 92.4193 31.5388C91.9971 32.2706 90.8992 32.6365 89.1257 32.6365C87.7745 32.6365 86.8033 32.3973 86.2121 31.9188C85.7617 31.5247 85.5083 30.9196 85.452 30.1033C85.452 29.8218 85.452 29.4137 85.452 28.8789V14.0595C85.452 13.4121 85.4661 12.9336 85.4943 12.624C85.5506 12.2862 85.6772 11.9203 85.8743 11.5262C86.2684 10.7663 87.3663 10.3863 89.1679 10.3863C90.857 10.3863 91.9126 10.71 92.3349 11.3573C92.6446 11.8077 92.7994 12.2721 92.7994 12.7506C92.9401 12.5536 93.1372 12.3143 93.3905 12.0329C93.6721 11.7514 94.2491 11.3714 95.1218 10.8929C95.9945 10.4144 96.7546 10.1752 97.402 10.1752C98.0777 10.1752 98.6407 10.2174 99.0911 10.3018C99.5415 10.3581 100.034 10.4707 100.569 10.6396Z" fill="black"/>
<path d="M104.095 30.6522C103.56 30.3144 103.293 29.7796 103.293 29.0478C103.293 28.316 103.827 27.2041 104.897 25.7124C105.207 25.2339 105.699 24.9946 106.375 24.9946C107.079 24.9946 108.022 25.3464 109.204 26.0501C110.387 26.7256 111.456 27.0634 112.413 27.0634C114.131 27.0634 114.989 26.7256 114.989 26.0501C114.989 25.5153 114.046 25.1213 112.16 24.8679C110.387 24.6146 108.627 23.9532 106.882 22.8836C106.065 22.3769 105.39 21.5888 104.855 20.5192C104.32 19.4215 104.053 18.1267 104.053 16.6349C104.053 12.1877 107.107 9.96407 113.216 9.96407C115.214 9.96407 117.269 10.4426 119.381 11.3996C120.366 11.8499 120.859 12.4129 120.859 13.0884C120.859 13.7639 120.549 14.5943 119.93 15.5794C119.31 16.5646 118.677 17.0571 118.03 17.0571C117.692 17.0571 117.058 16.846 116.129 16.4238C115.229 16.0016 114.243 15.7905 113.174 15.7905C111.513 15.7905 110.682 16.1001 110.682 16.7194C110.682 17.5638 111.639 18.1126 113.554 18.366C115.412 18.563 117.213 19.0978 118.959 19.9703C119.775 20.3644 120.451 21.054 120.985 22.0392C121.548 22.9962 121.83 24.2065 121.83 25.6701C121.83 27.1338 121.548 28.3863 120.985 29.4278C120.451 30.4411 119.69 31.201 118.705 31.7077C116.904 32.5802 114.637 33.0165 111.907 33.0165C109.204 33.0165 106.6 32.2284 104.095 30.6522Z" fill="black"/>
<path d="M124.586 14.1017C124.586 13.4543 124.6 12.9758 124.628 12.6662C124.684 12.3284 124.811 11.9484 125.008 11.5262C125.402 10.7944 126.5 10.4285 128.301 10.4285C129.653 10.4285 130.61 10.6677 131.173 11.1462C131.651 11.5403 131.905 12.1455 131.933 12.9617C131.961 13.2432 131.975 13.6513 131.975 14.1861V28.9633C131.975 29.6107 131.947 30.1033 131.891 30.4411C131.862 30.7507 131.736 31.1166 131.511 31.5388C131.145 32.2706 130.061 32.6365 128.259 32.6365C126.486 32.6365 125.402 32.2565 125.008 31.4966C124.811 31.0744 124.684 30.7085 124.628 30.3988C124.6 30.0892 124.586 29.5966 124.586 28.9211V14.1017ZM131.511 6.29087C131.314 6.68493 130.948 6.9664 130.413 7.13528C129.878 7.30417 129.16 7.38861 128.259 7.38861C127.387 7.38861 126.683 7.30417 126.148 7.13528C125.613 6.9664 125.233 6.67086 125.008 6.24865C124.811 5.82645 124.684 5.46053 124.628 5.15092C124.6 4.81315 124.586 4.32058 124.586 3.67319C124.586 3.02581 124.6 2.54731 124.628 2.23769C124.684 1.89993 124.811 1.53402 125.008 1.13996C125.402 0.379986 126.5 0 128.301 0C130.075 0 131.145 0.379986 131.511 1.13996C131.736 1.56216 131.862 1.94215 131.891 2.27991C131.947 2.58953 131.975 3.06803 131.975 3.71541C131.975 4.3628 131.947 4.85537 131.891 5.19314C131.862 5.50275 131.736 5.86867 131.511 6.29087Z" fill="black"/>
<path d="M134.715 21.5325C134.715 18.1549 135.897 15.3683 138.262 13.1728C140.627 10.9774 143.329 9.87962 146.369 9.87962C149.41 9.87962 152.098 10.9774 154.434 13.1728C156.771 15.3402 157.939 18.1126 157.939 21.4903C157.939 23.8265 157.334 25.9094 156.124 27.7389C154.913 29.5404 153.435 30.8773 151.69 31.7499C149.973 32.5943 148.185 33.0165 146.327 33.0165C144.469 33.0165 142.667 32.5662 140.922 31.6655C139.177 30.7366 137.699 29.3855 136.488 27.6123C135.306 25.8109 134.715 23.7843 134.715 21.5325ZM143.54 24.5724C144.441 25.2479 145.356 25.5857 146.285 25.5857C147.214 25.5857 148.143 25.2339 149.072 24.5302C150.001 23.8265 150.465 22.7851 150.465 21.4059C150.465 20.0266 150.029 18.9993 149.156 18.3237C148.284 17.6482 147.34 17.3105 146.327 17.3105C145.314 17.3105 144.371 17.6623 143.498 18.366C142.625 19.0696 142.189 20.1111 142.189 21.4903C142.189 22.8414 142.639 23.8687 143.54 24.5724Z" fill="black"/>
<path d="M173.04 10.3863C175.855 10.3863 178.191 11.4699 180.049 13.6373C181.935 15.7764 182.878 18.3941 182.878 21.4903V28.9211C182.878 29.5685 182.85 30.0611 182.794 30.3988C182.766 30.7085 182.653 31.0603 182.456 31.4544C182.062 32.2143 180.964 32.5943 179.163 32.5943C177.164 32.5943 176.01 32.0736 175.7 31.0321C175.531 30.5536 175.447 29.8359 175.447 28.8789V21.4481C175.447 20.294 175.109 19.3933 174.433 18.746C173.786 18.0986 172.899 17.7749 171.773 17.7749C170.675 17.7749 169.774 18.1126 169.071 18.7882C168.395 19.4637 168.057 20.3503 168.057 21.4481V28.9211C168.057 29.5685 168.029 30.0611 167.973 30.3988C167.944 30.7085 167.818 31.0603 167.593 31.4544C167.227 32.2143 166.143 32.5943 164.341 32.5943C162.568 32.5943 161.484 32.2143 161.09 31.4544C160.893 31.0321 160.766 30.6662 160.71 30.3566C160.682 30.0189 160.667 29.5263 160.667 28.8789V13.9328C160.667 13.3136 160.682 12.8491 160.71 12.5395C160.766 12.2018 160.907 11.8358 161.132 11.4418C161.526 10.7381 162.61 10.3863 164.383 10.3863C166.101 10.3863 167.156 10.71 167.55 11.3573C167.832 11.8358 167.973 12.4129 167.973 13.0884C168.085 12.8914 168.339 12.6099 168.733 12.244C169.127 11.8781 169.507 11.5825 169.873 11.3573C170.83 10.71 171.886 10.3863 173.04 10.3863Z" fill="black"/>
<path d="M207.726 18.8726C207.726 20.5896 207.29 21.8703 206.417 22.7147C205.573 23.531 204.63 23.9391 203.588 23.9391H193.581C193.581 24.7272 194.045 25.3887 194.974 25.9235C195.903 26.4582 196.832 26.7256 197.761 26.7256C199.394 26.7256 200.675 26.5568 201.603 26.219L202.068 26.0501C202.744 25.7405 203.307 25.5857 203.757 25.5857C204.658 25.5857 205.432 26.219 206.079 27.4856C206.445 28.2456 206.628 28.893 206.628 29.4278C206.628 31.9329 203.63 33.1854 197.634 33.1854C195.551 33.1854 193.693 32.8336 192.06 32.1299C190.456 31.3981 189.203 30.4411 188.302 29.2589C186.529 26.979 185.642 24.4317 185.642 21.617C185.642 18.0704 186.782 15.2416 189.062 13.1306C191.371 10.9914 194.242 9.92184 197.676 9.92184C201.589 9.92184 204.461 11.3011 206.291 14.0595C207.248 15.5231 207.726 17.1275 207.726 18.8726ZM198.817 20.097C199.886 20.097 200.421 19.6467 200.421 18.746C200.421 18.0986 200.168 17.5778 199.661 17.1838C199.183 16.7897 198.479 16.5927 197.55 16.5927C196.649 16.5927 195.748 16.9727 194.847 17.7327C193.946 18.4645 193.496 19.2526 193.496 20.097H198.817Z" fill="black"/>
<path d="M210.65 30.6522C210.115 30.3144 209.848 29.7796 209.848 29.0478C209.848 28.316 210.383 27.2041 211.452 25.7124C211.762 25.2339 212.255 24.9946 212.93 24.9946C213.634 24.9946 214.577 25.3464 215.76 26.0501C216.942 26.7256 218.012 27.0634 218.969 27.0634C220.686 27.0634 221.545 26.7256 221.545 26.0501C221.545 25.5153 220.601 25.1213 218.715 24.8679C216.942 24.6146 215.182 23.9532 213.437 22.8836C212.621 22.3769 211.945 21.5888 211.41 20.5192C210.875 19.4215 210.608 18.1267 210.608 16.6349C210.608 12.1877 213.662 9.96407 219.771 9.96407C221.77 9.96407 223.825 10.4426 225.936 11.3996C226.921 11.8499 227.414 12.4129 227.414 13.0884C227.414 13.7639 227.104 14.5943 226.485 15.5794C225.866 16.5646 225.232 17.0571 224.585 17.0571C224.247 17.0571 223.614 16.846 222.685 16.4238C221.784 16.0016 220.799 15.7905 219.729 15.7905C218.068 15.7905 217.237 16.1001 217.237 16.7194C217.237 17.5638 218.195 18.1126 220.109 18.366C221.967 18.563 223.768 19.0978 225.514 19.9703C226.33 20.3644 227.006 21.054 227.541 22.0392C228.104 22.9962 228.385 24.2065 228.385 25.6701C228.385 27.1338 228.104 28.3863 227.541 29.4278C227.006 30.4411 226.246 31.201 225.26 31.7077C223.459 32.5802 221.193 33.0165 218.462 33.0165C215.76 33.0165 213.156 32.2284 210.65 30.6522Z" fill="black"/>
<path d="M65.7885 44.8805C66.2389 45.7249 66.4922 46.4849 66.5485 47.1604C66.6611 47.8359 66.7174 48.8211 66.7174 50.1159V96.9807C66.7174 100.865 65.6477 103.145 63.5082 103.82C62.4385 104.158 61.0873 104.327 59.4545 104.327C57.8218 104.327 56.5268 104.186 55.5697 103.905C54.6126 103.623 53.8807 103.286 53.374 102.892C52.8672 102.498 52.4731 101.935 52.1916 101.203C51.9101 100.246 51.7694 98.7821 51.7694 96.8119V68.524C50.3618 70.2692 48.3068 73.0557 45.6043 76.8837C42.9018 80.6554 41.1846 83.0198 40.4527 83.9768C39.7208 84.9338 39.2141 85.6093 38.9326 86.0034C38.6511 86.3411 37.9473 86.8478 36.8213 87.5233C35.7515 88.1426 34.5692 88.4522 33.2743 88.4522C32.0356 88.4522 30.8814 88.1707 29.8117 87.6078C28.7983 86.9885 28.0664 86.3974 27.616 85.8345L26.9403 84.9056C25.8143 83.4983 23.5904 80.5147 20.2686 75.9549C16.9468 71.3387 15.1451 68.8618 14.8636 68.524V96.9807C14.8636 98.2755 14.8073 99.2606 14.6947 99.9362C14.6384 100.555 14.3851 101.259 13.9347 102.047C13.0901 103.567 10.8944 104.327 7.34736 104.327C3.91296 104.327 1.7735 103.567 0.928977 102.047C0.478564 101.259 0.197056 100.527 0.0844523 99.8517C0.0281508 99.1762 0 98.1629 0 96.8119V49.947C0 48.6522 0.0281508 47.6952 0.0844523 47.076C0.197056 46.4004 0.478564 45.6405 0.928977 44.7961C1.7735 43.3324 3.96927 42.6006 7.51627 42.6006C9.03641 42.6006 10.3314 42.7976 11.4011 43.1917C12.5271 43.5294 13.259 43.8954 13.5968 44.2894L14.1036 44.7961L33.2743 69.9595C42.8455 57.2934 49.2358 48.9337 52.445 44.8805C53.4021 43.3606 55.6542 42.6006 59.2012 42.6006C62.8045 42.6006 65.0002 43.3606 65.7885 44.8805Z" fill="black"/>
<path d="M88.4316 89.4655H114.443C115.738 89.4655 116.695 89.5218 117.314 89.6343C117.99 89.6906 118.75 89.944 119.595 90.3943C121.115 91.1824 121.875 93.3779 121.875 96.9807C121.875 100.921 120.833 103.229 118.75 103.905C117.793 104.243 116.329 104.412 114.359 104.412H80.9153C76.9742 104.412 74.6659 103.342 73.9902 101.203C73.6524 100.302 73.4835 98.8666 73.4835 96.8963V49.947C73.4835 47.076 74.0184 45.1338 75.0881 44.1205C76.1579 43.0509 78.1847 42.5161 81.1687 42.5161H114.443C115.738 42.5161 116.695 42.5724 117.314 42.685C117.99 42.7413 118.75 42.9946 119.595 43.445C121.115 44.2331 121.875 46.4286 121.875 50.0314C121.875 53.972 120.833 56.2801 118.75 56.9556C117.793 57.2934 116.329 57.4622 114.359 57.4622H88.4316V65.9908H105.153C106.448 65.9908 107.405 66.0471 108.025 66.1597C108.7 66.216 109.46 66.4693 110.305 66.9197C111.825 67.7078 112.585 69.9033 112.585 73.5061C112.585 77.4467 111.515 79.7547 109.376 80.4303C108.419 80.768 106.955 80.9369 104.984 80.9369H88.4316V89.4655Z" fill="black"/>
<path d="M153.857 73.3372C162.471 81.6124 168.579 87.8329 172.183 91.9987C174.041 94.0816 174.97 95.8549 174.97 97.3185C174.97 98.7259 173.844 100.415 171.592 102.385C169.339 104.299 167.482 105.256 166.018 105.256C164.61 105.256 162.893 104.074 160.866 101.709L142.287 80.5147V96.9807C142.287 98.3318 142.23 99.3169 142.118 99.9362C142.061 100.555 141.808 101.287 141.358 102.132C140.569 103.652 138.374 104.412 134.77 104.412C130.829 104.412 128.521 103.342 127.845 101.203C127.507 100.302 127.338 98.8666 127.338 96.8963V49.947C127.338 48.6522 127.367 47.6952 127.423 47.076C127.536 46.4004 127.817 45.6405 128.267 44.7961C129.056 43.2761 131.251 42.5161 134.855 42.5161C138.796 42.5161 141.132 43.5576 141.864 45.6405C142.146 46.5975 142.287 48.0611 142.287 50.0314V66.1597C149.944 57.5467 156.137 50.4818 160.866 44.9649C162.837 42.6569 164.554 41.5029 166.018 41.5029C167.482 41.5029 169.339 42.488 171.592 44.4583C173.844 46.3723 174.97 48.0611 174.97 49.5248C174.97 50.9321 174.125 52.621 172.436 54.5912C169.171 58.363 164.103 63.542 157.235 70.1284L153.857 73.3372Z" fill="black"/>
<path d="M215.762 46.9071L238.564 94.0253C239.521 95.9393 240 97.3748 240 98.3318C240 100.358 238.367 102.188 235.102 103.82C233.188 104.777 231.667 105.256 230.541 105.256C229.472 105.256 228.571 105.003 227.839 104.496C227.163 103.989 226.657 103.455 226.319 102.892C226.037 102.329 225.615 101.484 225.052 100.358L220.66 91.2387H197.267L192.876 100.358C192.313 101.484 191.862 102.301 191.524 102.807C191.243 103.314 190.736 103.849 190.004 104.412C189.329 104.918 188.428 105.172 187.302 105.172C186.232 105.172 184.74 104.693 182.826 103.736C179.56 102.16 177.927 100.358 177.927 98.3318C177.927 97.3748 178.406 95.9393 179.363 94.0253L202.165 46.8227C202.785 45.5279 203.714 44.4864 204.952 43.6983C206.247 42.9102 207.598 42.5161 209.006 42.5161C212.046 42.5161 214.298 43.9798 215.762 46.9071ZM208.922 67.173L203.348 78.7414H214.58L208.922 67.173Z" fill="black"/>
</svg>
