<svg width="2466" height="1199" viewBox="0 0 2466 1199" fill="none" xmlns="http://www.w3.org/2000/svg">
<path d="M711.093 451.436C711.093 446.694 711.196 443.189 711.402 440.921C711.815 438.446 712.846 435.663 714.495 432.57C717.382 427.004 725.424 424.22 738.621 424.22C753.056 424.22 761.613 428.035 764.294 435.663C765.325 439.168 765.84 444.529 765.84 451.745V623.697C765.84 628.645 765.634 632.253 765.222 634.521C765.016 636.789 764.088 639.469 762.438 642.562C759.551 648.129 751.509 650.912 738.312 650.912C723.878 650.912 715.423 646.995 712.949 639.16C711.712 635.861 711.093 630.604 711.093 623.388V451.436Z" fill="white"/>
<path d="M881.161 487.929C901.782 487.929 918.897 495.867 932.506 511.743C946.322 527.412 953.23 546.586 953.23 569.266V623.697C953.23 628.439 953.024 632.047 952.611 634.521C952.405 636.789 951.58 639.366 950.137 642.253C947.25 647.82 939.208 650.603 926.011 650.603C911.37 650.603 902.916 646.789 900.648 639.16C899.41 635.655 898.792 630.398 898.792 623.388V568.957C898.792 560.503 896.317 553.906 891.368 549.164C886.626 544.422 880.13 542.051 871.882 542.051C863.84 542.051 857.241 544.525 852.086 549.473C847.137 554.421 844.663 560.916 844.663 568.957V623.697C844.663 628.439 844.457 632.047 844.044 634.521C843.838 636.789 842.91 639.366 841.261 642.253C838.58 647.82 830.641 650.603 817.444 650.603C804.453 650.603 796.514 647.82 793.627 642.253C792.184 639.16 791.256 636.48 790.844 634.212C790.637 631.738 790.534 628.13 790.534 623.388V513.907C790.534 509.371 790.637 505.97 790.844 503.702C791.256 501.227 792.287 498.547 793.937 495.661C796.823 490.506 804.762 487.929 817.753 487.929C830.332 487.929 838.064 490.3 840.951 495.042C843.013 498.547 844.044 502.774 844.044 507.722C844.869 506.279 846.725 504.217 849.612 501.537C852.499 498.856 855.283 496.692 857.963 495.042C864.974 490.3 872.707 487.929 881.161 487.929Z" fill="white"/>
<path d="M1132.99 491.64C1143.71 498.032 1149.07 504.836 1149.07 512.052C1149.07 516.175 1147.01 521.845 1142.89 529.061L1078.86 638.851C1076.8 642.356 1073.5 645.552 1068.96 648.438C1064.43 651.118 1059.89 652.459 1055.35 652.459C1051.02 652.459 1046.8 651.428 1042.67 649.366C1038.75 647.098 1035.97 644.83 1034.32 642.562L1031.54 639.16L967.202 529.061C963.078 522.258 961.016 516.691 961.016 512.361C961.016 504.939 966.377 498.032 977.1 491.64C984.935 487.104 991.122 484.836 995.658 484.836C1000.19 484.836 1003.7 486.28 1006.17 489.166C1008.86 491.846 1011.64 495.97 1014.53 501.537L1055.04 579.472L1095.56 501.537C1097.83 497.619 1099.48 494.836 1100.51 493.187C1101.75 491.331 1103.61 489.578 1106.08 487.929C1108.56 486.073 1111.85 485.146 1115.98 485.146C1120.1 485.146 1125.77 487.311 1132.99 491.64Z" fill="white"/>
<path d="M1313.76 550.092C1313.76 562.668 1310.56 572.049 1304.17 578.235C1297.98 584.214 1291.07 587.203 1283.44 587.203H1210.14C1210.14 592.976 1213.54 597.822 1220.35 601.739C1227.15 605.656 1233.95 607.615 1240.76 607.615C1252.72 607.615 1262.1 606.378 1268.91 603.904L1272.31 602.667C1277.26 600.399 1281.38 599.265 1284.68 599.265C1291.28 599.265 1296.95 603.904 1301.69 613.182C1304.37 618.749 1305.71 623.491 1305.71 627.408C1305.71 645.758 1283.75 654.933 1239.83 654.933C1224.57 654.933 1210.96 652.355 1199 647.201C1187.25 641.84 1178.07 634.83 1171.47 626.171C1158.48 609.471 1151.99 590.812 1151.99 570.194C1151.99 544.215 1160.34 523.495 1177.04 508.031C1193.95 492.362 1214.98 484.527 1240.14 484.527C1268.8 484.527 1289.84 494.63 1303.24 514.835C1310.25 525.556 1313.76 537.309 1313.76 550.092ZM1248.49 559.06C1256.33 559.06 1260.25 555.761 1260.25 549.164C1260.25 544.422 1258.39 540.607 1254.68 537.721C1251.17 534.834 1246.02 533.391 1239.21 533.391C1232.61 533.391 1226.02 536.175 1219.42 541.741C1212.82 547.102 1209.52 552.875 1209.52 559.06H1248.49Z" fill="white"/>
<path d="M1444.67 489.785C1448.59 491.022 1451.78 493.187 1454.26 496.279C1456.94 499.166 1458.28 503.908 1458.28 510.505C1458.28 517.103 1456.32 524.319 1452.4 532.154C1448.48 539.989 1442.81 543.906 1435.39 543.906C1431.68 543.906 1428.07 543.081 1424.56 541.432C1421.26 539.783 1416.83 538.958 1411.26 538.958C1405.7 538.958 1400.44 540.917 1395.49 544.834C1390.75 548.751 1388.37 553.493 1388.37 559.06V624.006C1388.37 628.748 1388.17 632.356 1387.76 634.83C1387.55 637.098 1386.62 639.779 1384.97 642.871C1381.88 648.232 1373.84 650.912 1360.85 650.912C1350.95 650.912 1343.83 649.16 1339.5 645.655C1336.2 642.768 1334.35 638.335 1333.94 632.356C1333.94 630.294 1333.94 627.305 1333.94 623.388V514.835C1333.94 510.093 1334.04 506.588 1334.25 504.32C1334.66 501.846 1335.59 499.166 1337.03 496.279C1339.92 490.712 1347.96 487.929 1361.16 487.929C1373.53 487.929 1381.26 490.3 1384.35 495.042C1386.62 498.341 1387.76 501.743 1387.76 505.248C1388.79 503.805 1390.23 502.052 1392.09 499.99C1394.15 497.929 1398.37 495.145 1404.77 491.64C1411.16 488.135 1416.73 486.383 1421.47 486.383C1426.42 486.383 1430.54 486.692 1433.84 487.31C1437.14 487.723 1440.75 488.548 1444.67 489.785Z" fill="white"/>
<path d="M1470.5 636.377C1466.58 633.903 1464.62 629.985 1464.62 624.625C1464.62 619.264 1468.54 611.12 1476.37 600.193C1478.64 596.688 1482.25 594.935 1487.2 594.935C1492.35 594.935 1499.26 597.512 1507.92 602.667C1516.58 607.615 1524.42 610.089 1531.43 610.089C1544.01 610.089 1550.3 607.615 1550.3 602.667C1550.3 598.749 1543.39 595.863 1529.57 594.007C1516.58 592.152 1503.69 587.307 1490.91 579.472C1484.93 575.761 1479.98 569.988 1476.06 562.153C1472.14 554.112 1470.19 544.628 1470.19 533.7C1470.19 501.124 1492.56 484.836 1537.31 484.836C1551.95 484.836 1567 488.341 1582.46 495.351C1589.68 498.65 1593.29 502.774 1593.29 507.722C1593.29 512.67 1591.02 518.753 1586.49 525.969C1581.95 533.185 1577.31 536.793 1572.57 536.793C1570.09 536.793 1565.45 535.247 1558.65 532.154C1552.05 529.061 1544.83 527.515 1537 527.515C1524.83 527.515 1518.75 529.783 1518.75 534.319C1518.75 540.504 1525.76 544.525 1539.78 546.38C1553.39 547.824 1566.59 551.741 1579.37 558.132C1585.35 561.019 1590.3 566.07 1594.22 573.286C1598.34 580.296 1600.4 589.162 1600.4 599.883C1600.4 610.605 1598.34 619.779 1594.22 627.408C1590.3 634.83 1584.73 640.397 1577.52 644.108C1564.32 650.5 1547.72 653.696 1527.72 653.696C1507.92 653.696 1488.85 647.923 1470.5 636.377Z" fill="white"/>
<path d="M1620.59 515.144C1620.59 510.402 1620.69 506.897 1620.9 504.629C1621.31 502.155 1622.24 499.372 1623.68 496.279C1626.57 490.919 1634.61 488.238 1647.81 488.238C1657.71 488.238 1664.72 489.991 1668.84 493.496C1672.35 496.382 1674.2 500.815 1674.41 506.794C1674.61 508.856 1674.72 511.846 1674.72 515.763V624.006C1674.72 628.748 1674.51 632.356 1674.1 634.83C1673.89 637.098 1672.96 639.779 1671.32 642.871C1668.63 648.232 1660.7 650.912 1647.5 650.912C1634.51 650.912 1626.57 648.129 1623.68 642.562C1622.24 639.469 1621.31 636.789 1620.9 634.521C1620.69 632.253 1620.59 628.645 1620.59 623.697V515.144ZM1671.32 457.93C1669.87 460.817 1667.19 462.879 1663.27 464.116C1659.36 465.353 1654.1 465.971 1647.5 465.971C1641.11 465.971 1635.95 465.353 1632.03 464.116C1628.12 462.879 1625.33 460.714 1623.68 457.621C1622.24 454.528 1621.31 451.848 1620.9 449.58C1620.69 447.106 1620.59 443.498 1620.59 438.756C1620.59 434.014 1620.69 430.509 1620.9 428.241C1621.31 425.767 1622.24 423.086 1623.68 420.2C1626.57 414.633 1634.61 411.85 1647.81 411.85C1660.8 411.85 1668.63 414.633 1671.32 420.2C1672.96 423.292 1673.89 426.076 1674.1 428.55C1674.51 430.818 1674.72 434.323 1674.72 439.065C1674.72 443.807 1674.51 447.415 1674.1 449.889C1673.89 452.157 1672.96 454.838 1671.32 457.93Z" fill="white"/>
<path d="M1694.79 569.575C1694.79 544.834 1703.45 524.422 1720.77 508.341C1738.09 492.259 1757.88 484.218 1780.15 484.218C1802.43 484.218 1822.12 492.259 1839.23 508.341C1856.35 524.216 1864.91 544.525 1864.91 569.266C1864.91 586.379 1860.47 601.636 1851.6 615.037C1842.74 628.233 1831.91 638.026 1819.13 644.418C1806.55 650.603 1793.46 653.696 1779.85 653.696C1766.24 653.696 1753.04 650.397 1740.25 643.799C1727.47 636.995 1716.64 627.099 1707.78 614.11C1699.12 600.914 1694.79 586.069 1694.79 569.575ZM1759.43 591.842C1766.03 596.791 1772.73 599.265 1779.54 599.265C1786.34 599.265 1793.15 596.688 1799.95 591.533C1806.76 586.379 1810.16 578.75 1810.16 568.647C1810.16 558.545 1806.96 551.019 1800.57 546.071C1794.18 541.123 1787.27 538.649 1779.85 538.649C1772.42 538.649 1765.51 541.226 1759.12 546.38C1752.73 551.535 1749.53 559.163 1749.53 569.266C1749.53 579.163 1752.83 586.688 1759.43 591.842Z" fill="white"/>
<path d="M1975.52 487.929C1996.14 487.929 2013.25 495.867 2026.86 511.743C2040.68 527.412 2047.58 546.586 2047.58 569.266V623.697C2047.58 628.439 2047.38 632.047 2046.97 634.521C2046.76 636.789 2045.94 639.366 2044.49 642.253C2041.6 647.82 2033.56 650.603 2020.37 650.603C2005.73 650.603 1997.27 646.789 1995 639.16C1993.77 635.655 1993.15 630.398 1993.15 623.388V568.957C1993.15 560.503 1990.67 553.906 1985.72 549.164C1980.98 544.422 1974.49 542.051 1966.24 542.051C1958.2 542.051 1951.6 544.525 1946.44 549.473C1941.49 554.421 1939.02 560.916 1939.02 568.957V623.697C1939.02 628.439 1938.81 632.047 1938.4 634.521C1938.19 636.789 1937.27 639.366 1935.62 642.253C1932.94 647.82 1925 650.603 1911.8 650.603C1898.81 650.603 1890.87 647.82 1887.98 642.253C1886.54 639.16 1885.61 636.48 1885.2 634.212C1884.99 631.738 1884.89 628.13 1884.89 623.388V513.907C1884.89 509.371 1884.99 505.97 1885.2 503.702C1885.61 501.227 1886.64 498.547 1888.29 495.661C1891.18 490.506 1899.12 487.929 1912.11 487.929C1924.69 487.929 1932.42 490.3 1935.31 495.042C1937.37 498.547 1938.4 502.774 1938.4 507.722C1939.22 506.279 1941.08 504.217 1943.97 501.537C1946.85 498.856 1949.64 496.692 1952.32 495.042C1959.33 490.3 1967.06 487.929 1975.52 487.929Z" fill="white"/>
<path d="M2229.6 550.092C2229.6 562.668 2226.4 572.049 2220.01 578.235C2213.82 584.214 2206.91 587.203 2199.28 587.203H2125.98C2125.98 592.976 2129.38 597.822 2136.18 601.739C2142.99 605.656 2149.79 607.615 2156.6 607.615C2168.56 607.615 2177.94 606.378 2184.75 603.904L2188.15 602.667C2193.1 600.399 2197.22 599.265 2200.52 599.265C2207.12 599.265 2212.79 603.904 2217.53 613.182C2220.21 618.749 2221.55 623.491 2221.55 627.408C2221.55 645.758 2199.59 654.933 2155.67 654.933C2140.41 654.933 2126.8 652.355 2114.84 647.201C2103.09 641.84 2093.91 634.83 2087.31 626.171C2074.32 609.471 2067.83 590.812 2067.83 570.194C2067.83 544.215 2076.18 523.495 2092.88 508.031C2109.79 492.362 2130.82 484.527 2155.98 484.527C2184.64 484.527 2205.68 494.63 2219.08 514.835C2226.09 525.556 2229.6 537.309 2229.6 550.092ZM2164.33 559.06C2172.17 559.06 2176.08 555.761 2176.08 549.164C2176.08 544.422 2174.23 540.607 2170.52 537.721C2167.01 534.834 2161.86 533.391 2155.05 533.391C2148.45 533.391 2141.86 536.175 2135.26 541.741C2128.66 547.102 2125.36 552.875 2125.36 559.06H2164.33Z" fill="white"/>
<path d="M2251.01 636.377C2247.09 633.903 2245.14 629.985 2245.14 624.625C2245.14 619.264 2249.05 611.12 2256.89 600.193C2259.16 596.688 2262.77 594.935 2267.71 594.935C2272.87 594.935 2279.78 597.512 2288.44 602.667C2297.1 607.615 2304.93 610.089 2311.95 610.089C2324.52 610.089 2330.81 607.615 2330.81 602.667C2330.81 598.749 2323.91 595.863 2310.09 594.007C2297.1 592.152 2284.21 587.307 2271.43 579.472C2265.45 575.761 2260.5 569.988 2256.58 562.153C2252.66 554.112 2250.7 544.628 2250.7 533.7C2250.7 501.124 2273.08 484.836 2317.82 484.836C2332.46 484.836 2347.52 488.341 2362.98 495.351C2370.2 498.65 2373.81 502.774 2373.81 507.722C2373.81 512.67 2371.54 518.753 2367 525.969C2362.47 533.185 2357.83 536.793 2353.08 536.793C2350.61 536.793 2345.97 535.247 2339.16 532.154C2332.57 529.061 2325.35 527.515 2317.51 527.515C2305.35 527.515 2299.26 529.783 2299.26 534.319C2299.26 540.504 2306.28 544.525 2320.3 546.38C2333.91 547.824 2347.1 551.741 2359.89 558.132C2365.87 561.019 2370.82 566.07 2374.74 573.286C2378.86 580.296 2380.92 589.162 2380.92 599.883C2380.92 610.605 2378.86 619.779 2374.74 627.408C2370.82 634.83 2365.25 640.397 2358.03 644.108C2344.84 650.5 2328.24 653.696 2308.23 653.696C2288.44 653.696 2269.36 647.923 2251.01 636.377Z" fill="white"/>
<path d="M1189.9 740.599C1193.2 746.785 1195.06 752.351 1195.47 757.3C1196.29 762.248 1196.71 769.464 1196.71 778.948V1122.23C1196.71 1150.69 1188.87 1167.39 1173.2 1172.33C1165.36 1174.81 1155.46 1176.05 1143.5 1176.05C1131.54 1176.05 1122.06 1175.01 1115.05 1172.95C1108.04 1170.89 1102.68 1168.42 1098.96 1165.53C1095.25 1162.64 1092.37 1158.52 1090.3 1153.16C1088.24 1146.15 1087.21 1135.43 1087.21 1121V913.788C1076.9 926.571 1061.85 946.983 1042.05 975.023C1022.26 1002.65 1009.68 1019.97 1004.32 1026.98C998.955 1033.99 995.243 1038.94 993.181 1041.82C991.119 1044.3 985.964 1048.01 977.716 1052.96C969.88 1057.49 961.219 1059.76 951.734 1059.76C942.661 1059.76 934.207 1057.7 926.371 1053.58C918.947 1049.04 913.586 1044.71 910.287 1040.59L905.338 1033.78C897.09 1023.47 880.8 1001.62 856.467 968.219C832.135 934.406 818.938 916.262 816.876 913.788V1122.23C816.876 1131.72 816.464 1138.93 815.639 1143.88C815.226 1148.42 813.371 1153.57 810.071 1159.35C803.885 1170.48 787.801 1176.05 761.819 1176.05C736.662 1176.05 720.991 1170.48 714.805 1159.35C711.505 1153.57 709.443 1148.21 708.619 1143.26C708.206 1138.32 708 1130.89 708 1121V777.711C708 768.227 708.206 761.217 708.619 756.681C709.443 751.733 711.505 746.166 714.805 739.981C720.991 729.26 737.075 723.899 763.057 723.899C774.192 723.899 783.677 725.342 791.513 728.229C799.761 730.703 805.122 733.383 807.597 736.27L811.309 739.981L951.734 924.303C1021.84 831.523 1068.65 770.289 1092.16 740.599C1099.17 729.466 1115.67 723.899 1141.65 723.899C1168.04 723.899 1184.13 729.466 1189.9 740.599Z" fill="white"/>
<path d="M1355.76 1067.18H1546.29C1555.78 1067.18 1562.79 1067.6 1567.33 1068.42C1572.28 1068.83 1577.84 1070.69 1584.03 1073.99C1595.17 1079.76 1600.73 1095.84 1600.73 1122.23C1600.73 1151.1 1593.1 1168 1577.84 1172.95C1570.83 1175.43 1560.11 1176.66 1545.68 1176.66H1300.7C1271.84 1176.66 1254.93 1168.83 1249.98 1153.16C1247.5 1146.56 1246.27 1136.05 1246.27 1121.61V777.711C1246.27 756.681 1250.18 742.455 1258.02 735.033C1265.86 727.198 1280.7 723.28 1302.56 723.28H1546.29C1555.78 723.28 1562.79 723.693 1567.33 724.517C1572.28 724.93 1577.84 726.785 1584.03 730.084C1595.17 735.857 1600.73 751.939 1600.73 778.33C1600.73 807.195 1593.1 824.101 1577.84 829.049C1570.83 831.523 1560.11 832.761 1545.68 832.761H1355.76V895.232H1478.25C1487.73 895.232 1494.74 895.645 1499.28 896.469C1504.23 896.882 1509.8 898.737 1515.98 902.036C1527.12 907.809 1532.69 923.891 1532.69 950.282C1532.69 979.146 1524.85 996.053 1509.18 1001C1502.17 1003.48 1491.44 1004.71 1477.01 1004.71H1355.76V1067.18Z" fill="white"/>
<path d="M1835 949.045C1898.1 1009.66 1942.84 1055.23 1969.24 1085.74C1982.85 1101 1989.65 1113.99 1989.65 1124.71C1989.65 1135.02 1981.4 1147.39 1964.91 1161.82C1948.41 1175.84 1934.8 1182.85 1924.08 1182.85C1913.77 1182.85 1901.19 1174.19 1886.34 1156.87L1750.25 1001.62V1122.23C1750.25 1132.13 1749.84 1139.35 1749.01 1143.88C1748.6 1148.42 1746.74 1153.78 1743.44 1159.96C1737.67 1171.1 1721.59 1176.66 1695.19 1176.66C1666.32 1176.66 1649.41 1168.83 1644.47 1153.16C1641.99 1146.56 1640.75 1136.05 1640.75 1121.61V777.711C1640.75 768.227 1640.96 761.217 1641.37 756.681C1642.2 751.733 1644.26 746.166 1647.56 739.981C1653.33 728.847 1669.42 723.28 1695.81 723.28C1724.68 723.28 1741.79 730.909 1747.16 746.166C1749.22 753.176 1750.25 763.897 1750.25 778.33V896.469C1806.34 833.379 1851.7 781.629 1886.34 741.218C1900.78 724.311 1913.36 715.858 1924.08 715.858C1934.8 715.858 1948.41 723.074 1964.91 737.507C1981.4 751.527 1989.65 763.897 1989.65 774.619C1989.65 784.927 1983.47 797.298 1971.09 811.73C1947.17 839.358 1910.06 877.295 1859.74 925.54L1835 949.045Z" fill="white"/>
<path d="M2288.46 755.444L2455.48 1100.58C2462.49 1114.6 2466 1125.12 2466 1132.13C2466 1146.97 2454.04 1160.38 2430.12 1172.33C2416.1 1179.34 2404.96 1182.85 2396.72 1182.85C2388.88 1182.85 2382.28 1180.99 2376.92 1177.28C2371.97 1173.57 2368.26 1169.65 2365.78 1165.53C2363.72 1161.41 2360.63 1155.22 2356.51 1146.97L2324.34 1080.17H2152.98L2120.81 1146.97C2116.69 1155.22 2113.39 1161.2 2110.92 1164.91C2108.85 1168.62 2105.14 1172.54 2099.78 1176.66C2094.83 1180.38 2088.23 1182.23 2079.98 1182.23C2072.15 1182.23 2061.22 1178.73 2047.2 1171.72C2023.28 1160.17 2011.32 1146.97 2011.32 1132.13C2011.32 1125.12 2014.82 1114.6 2021.83 1100.58L2188.86 754.826C2193.4 745.341 2200.2 737.713 2209.28 731.94C2218.76 726.167 2228.66 723.28 2238.97 723.28C2261.24 723.28 2277.74 734.002 2288.46 755.444ZM2238.35 903.892L2197.52 988.631H2279.8L2238.35 903.892Z" fill="white"/>
<path d="M16.0057 68.9292L8.60784 67.6958C8.53989 68.1034 8.50574 68.5158 8.50573 68.929L16.0057 68.9292ZM16.0057 68.9292C8.60784 67.6958 8.60836 67.6927 8.60892 67.6893L8.61022 67.6816L8.61347 67.6624L8.62261 67.6092C8.62988 67.5672 8.63955 67.5123 8.65172 67.4447C8.67605 67.3097 8.71039 67.1243 8.75559 66.8919C8.84598 66.4272 8.97999 65.7735 9.16455 64.9578C9.53327 63.3281 10.1061 61.0411 10.9396 58.3139C12.5982 52.8871 15.3321 45.5752 19.638 38.1946C28.2605 23.4154 43.8051 7.51622 69.9252 7.50703C92.3946 7.49912 227.202 7.49912 356.389 7.5011C420.984 7.50209 484.174 7.50357 531.215 7.5048L587.823 7.50638L603.587 7.50685L607.73 7.50698L608.791 7.50701L609.059 7.50702L609.127 7.50703L609.144 7.50703C609.148 7.50703 609.15 7.50703 609.149 15.007M16.0057 68.9292C8.50573 68.929 8.50573 68.9328 8.50573 68.9402L8.50573 68.9738L8.50573 69.1075L8.50572 69.6392L8.50568 71.7409L8.50553 79.9451L8.50497 111.142L8.50311 222.966C8.50166 315.782 8.49991 440.192 8.49875 566.57C8.49642 819.323 8.49642 1079.95 8.50573 1111.43C8.5158 1145.45 23.2627 1165.57 38.4748 1176.98C45.9474 1182.58 53.39 1185.99 58.9612 1187.99C61.7559 1189 64.1077 1189.67 65.7971 1190.09C66.6427 1190.3 67.3251 1190.45 67.8172 1190.55C68.0634 1190.6 68.2623 1190.64 68.4105 1190.67C68.4846 1190.68 68.546 1190.69 68.5944 1190.7L68.6572 1190.71L68.6811 1190.72L68.6912 1190.72C68.6958 1190.72 68.7001 1190.72 69.9279 1183.32L68.7001 1190.72C69.1059 1190.79 69.5165 1190.82 69.9279 1190.82H609.149C626.405 1190.82 639.417 1185.85 648.945 1177.82C658.363 1169.89 663.77 1159.5 666.86 1149.61C669.948 1139.73 670.842 1129.98 670.991 1122.81C671.066 1119.2 670.954 1116.19 670.82 1114.05C670.753 1112.97 670.681 1112.12 670.623 1111.52C670.604 1111.32 670.586 1111.15 670.571 1111.01V68.9292C670.571 42.8263 654.668 27.2818 639.891 18.656C632.511 14.3477 625.198 11.6099 619.771 9.94795C617.043 9.11278 614.756 8.53845 613.126 8.16862C612.31 7.9835 611.656 7.84903 611.192 7.75832C610.959 7.71295 610.774 7.67848 610.639 7.65405C610.571 7.64184 610.516 7.63214 610.474 7.62483L610.421 7.61566L610.402 7.6124L610.394 7.6111C610.391 7.61054 610.388 7.61001 609.149 15.007M609.149 15.007L610.388 7.61001C609.979 7.54149 609.564 7.50704 609.15 7.50703L609.149 15.007Z" fill="white" stroke="white" stroke-width="15" stroke-linejoin="round"/>
<rect x="87.8945" y="158.791" width="503.273" height="826.806" fill="#9CDFF0"/>
<path d="M87.8945 769.91V787.884" stroke="black" stroke-width="15" stroke-linejoin="round"/>
<path d="M87.8945 841.803V985.596H591.168V302.582" stroke="black" stroke-width="15" stroke-linejoin="round"/>
<path d="M591.164 194.739V158.791" stroke="black" stroke-width="15" stroke-linejoin="round"/>
<path d="M285.617 86.8945H402.449" stroke="black" stroke-width="15" stroke-linejoin="round"/>
<path d="M87.8945 158.791V662.064" stroke="black" stroke-width="15" stroke-linejoin="round"/>
<path d="M87.8945 158.791L519.272 158.791" stroke="black" stroke-width="15" stroke-linejoin="round"/>
<path d="M672.055 149.809H708.003V257.653H672.055" stroke="white" stroke-width="15" stroke-linejoin="round"/>
<g clip-path="url(#clip0_712_2)">
<path d="M224.06 775.921C236.09 769.934 245.402 760.589 250.466 749.424L288.354 744.91L288.005 734.333C287.947 732.437 288.106 730.542 288.48 728.673L292.837 714.225L251.757 713.478C247.816 703.051 240.23 693.935 230.044 687.383C219.859 680.831 207.573 677.165 194.876 676.889C182.179 676.614 169.696 679.742 159.142 685.844C148.587 691.945 140.481 700.721 135.938 710.964C131.395 721.207 130.637 732.414 133.77 743.044C136.903 753.674 143.771 763.204 153.432 770.325C163.092 777.446 175.07 781.808 187.717 782.81C200.365 783.812 213.061 781.405 224.06 775.921V775.921ZM176.258 704.415C182.106 701.499 188.825 700.146 195.563 700.527C202.302 700.909 208.758 703.007 214.116 706.558C219.474 710.108 223.492 714.951 225.663 720.474C227.834 725.997 228.059 731.951 226.311 737.585C224.564 743.219 220.921 748.278 215.843 752.124C210.766 755.969 204.482 758.428 197.787 759.189C191.091 759.95 184.285 758.98 178.228 756.4C172.171 753.821 167.136 749.748 163.76 744.697C159.232 737.924 158.005 729.875 160.349 722.321C162.693 714.766 168.415 708.325 176.258 704.415V704.415Z" fill="#D9D9D9" stroke="black" stroke-width="15"/>
<path d="M478.961 602.026L469.511 596.029C461.752 591.028 451.786 591.247 437.66 596.716C429.752 599.807 417.208 605.858 402.552 617.464C389.667 627.678 324.296 680.49 305.632 715.692C296.804 732.344 302.216 746.057 306.609 757.053C310.589 767.105 313.716 775.055 308.241 786.033C301.907 798.675 295.073 806.543 291.356 810.286C276.972 808.442 262.298 811.078 249.959 817.722C237.62 824.367 228.421 834.587 224.009 846.553C219.597 858.519 220.259 871.451 225.877 883.034C231.495 894.617 241.702 904.096 254.672 909.774C267.642 915.452 282.529 916.959 296.668 914.025C310.806 911.091 323.275 903.908 331.842 893.761C340.409 883.613 344.516 871.164 343.427 858.641C342.339 846.118 336.126 834.338 325.901 825.41L478.961 602.026ZM350.116 740.331C347.777 741.497 345.089 742.038 342.394 741.886C339.698 741.733 337.116 740.894 334.973 739.474C332.83 738.053 331.222 736.116 330.354 733.907C329.486 731.698 329.395 729.316 330.094 727.063C330.794 724.809 332.251 722.786 334.282 721.247C336.313 719.709 338.826 718.726 341.504 718.421C344.182 718.117 346.905 718.505 349.328 719.537C351.75 720.568 353.764 722.198 355.115 724.218C356.926 726.927 357.417 730.147 356.48 733.169C355.542 736.19 353.253 738.767 350.116 740.331V740.331ZM299.21 888.296C293.361 891.212 286.643 892.565 279.904 892.184C273.165 891.802 266.709 889.703 261.351 886.153C255.994 882.602 251.975 877.76 249.805 872.237C247.634 866.714 247.408 860.759 249.156 855.126C250.904 849.492 254.547 844.433 259.624 840.587C264.701 836.742 270.985 834.283 277.68 833.522C284.376 832.76 291.182 833.731 297.239 836.31C303.296 838.89 308.331 842.963 311.707 848.014C316.235 854.787 317.462 862.836 315.119 870.39C312.775 877.945 307.052 884.386 299.21 888.296Z" fill="#D9D9D9" stroke="black" stroke-width="15"/>
<path d="M417.034 710.256L375.693 771.883L401.701 770.05L405.12 769.826C422.806 768.711 469.855 765.751 508.682 748.944C511.656 747.657 514.349 746.408 516.796 745.188C532.079 737.542 537.944 730.097 541.227 725.055L550.221 708.653L417.034 710.256Z" fill="#D9D9D9" stroke="black" stroke-width="15"/>
</g>
<rect x="134.316" y="205.217" width="119.06" height="104.87" rx="22.5" fill="#7CDA6D" stroke="black" stroke-width="15"/>
<rect x="282.816" y="205.217" width="119.06" height="104.87" rx="22.5" fill="#3980A3" stroke="black" stroke-width="15"/>
<rect x="431.379" y="205.217" width="119.06" height="104.87" rx="22.5" fill="#FFFAB0" stroke="black" stroke-width="15"/>
<rect x="134.316" y="349.008" width="119.06" height="104.87" rx="22.5" fill="#FF7462" stroke="black" stroke-width="15"/>
<rect x="282.816" y="349.008" width="119.06" height="104.87" rx="22.5" fill="#F14469" stroke="black" stroke-width="15"/>
<rect x="431.379" y="349.008" width="119.06" height="104.87" rx="22.5" fill="#058969" stroke="black" stroke-width="15"/>
<path d="M342.347 1118.91C374.154 1118.91 401.877 1096.43 401.877 1066.48C401.877 1036.52 374.154 1014.04 342.347 1014.04C310.539 1014.04 282.816 1036.52 282.816 1066.48C282.816 1096.43 310.539 1118.91 342.347 1118.91Z" fill="#FFF8D5" stroke="black" stroke-width="15"/>
<defs>
<clipPath id="clip0_712_2">
<rect width="422.942" height="393.202" fill="white" transform="matrix(0.89492 -0.446226 0.555761 0.831342 51.957 671.053)"/>
</clipPath>
</defs>
</svg>
