<svg width="2466" height="1199" viewBox="0 0 2466 1199" fill="none" xmlns="http://www.w3.org/2000/svg">
<path d="M711.093 451.586C711.093 446.844 711.196 443.339 711.402 441.071C711.815 438.597 712.846 435.813 714.495 432.721C717.382 427.154 725.424 424.371 738.621 424.371C753.056 424.371 761.613 428.185 764.294 435.813C765.325 439.319 765.84 444.679 765.84 451.895V623.847C765.84 628.795 765.634 632.404 765.222 634.671C765.016 636.939 764.088 639.62 762.438 642.712C759.551 648.279 751.509 651.063 738.312 651.063C723.878 651.063 715.423 647.145 712.949 639.31C711.712 636.012 711.093 630.754 711.093 623.538V451.586Z" fill="black"/>
<path d="M881.161 488.079C901.782 488.079 918.897 496.017 932.506 511.893C946.322 527.562 953.23 546.737 953.23 569.416V623.847C953.23 628.589 953.024 632.197 952.611 634.671C952.405 636.939 951.58 639.517 950.137 642.403C947.25 647.97 939.208 650.753 926.011 650.753C911.37 650.753 902.916 646.939 900.648 639.31C899.41 635.805 898.792 630.548 898.792 623.538V569.107C898.792 560.654 896.317 554.056 891.368 549.314C886.626 544.572 880.13 542.201 871.882 542.201C863.84 542.201 857.241 544.675 852.086 549.623C847.137 554.572 844.663 561.066 844.663 569.107V623.847C844.663 628.589 844.457 632.197 844.044 634.671C843.838 636.939 842.91 639.517 841.261 642.403C838.58 647.97 830.641 650.753 817.444 650.753C804.453 650.753 796.514 647.97 793.627 642.403C792.184 639.31 791.256 636.63 790.844 634.362C790.637 631.888 790.534 628.28 790.534 623.538V514.058C790.534 509.522 790.637 506.12 790.844 503.852C791.256 501.378 792.287 498.698 793.937 495.811C796.823 490.657 804.762 488.079 817.753 488.079C830.332 488.079 838.064 490.45 840.951 495.193C843.013 498.698 844.044 502.924 844.044 507.872C844.869 506.429 846.725 504.367 849.612 501.687C852.499 499.007 855.283 496.842 857.963 495.193C864.974 490.45 872.707 488.079 881.161 488.079Z" fill="black"/>
<path d="M1132.99 491.791C1143.71 498.182 1149.07 504.986 1149.07 512.202C1149.07 516.326 1147.01 521.996 1142.89 529.212L1078.86 639.001C1076.8 642.506 1073.5 645.702 1068.96 648.588C1064.43 651.269 1059.89 652.609 1055.35 652.609C1051.02 652.609 1046.8 651.578 1042.67 649.516C1038.75 647.248 1035.97 644.98 1034.32 642.712L1031.54 639.31L967.202 529.212C963.078 522.408 961.016 516.841 961.016 512.511C961.016 505.089 966.377 498.182 977.1 491.791C984.935 487.255 991.122 484.987 995.658 484.987C1000.19 484.987 1003.7 486.43 1006.17 489.316C1008.86 491.997 1011.64 496.12 1014.53 501.687L1055.04 579.622L1095.56 501.687C1097.83 497.77 1099.48 494.986 1100.51 493.337C1101.75 491.481 1103.61 489.729 1106.08 488.079C1108.56 486.224 1111.85 485.296 1115.98 485.296C1120.1 485.296 1125.77 487.461 1132.99 491.791Z" fill="black"/>
<path d="M1313.76 550.242C1313.76 562.819 1310.56 572.2 1304.17 578.385C1297.98 584.364 1291.07 587.354 1283.44 587.354H1210.14C1210.14 593.127 1213.54 597.972 1220.35 601.889C1227.15 605.807 1233.95 607.765 1240.76 607.765C1252.72 607.765 1262.1 606.528 1268.91 604.054L1272.31 602.817C1277.26 600.549 1281.38 599.415 1284.68 599.415C1291.28 599.415 1296.95 604.054 1301.69 613.332C1304.37 618.899 1305.71 623.641 1305.71 627.558C1305.71 645.908 1283.75 655.083 1239.83 655.083C1224.57 655.083 1210.96 652.506 1199 647.351C1187.25 641.991 1178.07 634.981 1171.47 626.321C1158.48 609.621 1151.99 590.962 1151.99 570.344C1151.99 544.366 1160.34 523.645 1177.04 508.182C1193.95 492.512 1214.98 484.677 1240.14 484.677C1268.8 484.677 1289.84 494.78 1303.24 514.986C1310.25 525.707 1313.76 537.459 1313.76 550.242ZM1248.49 559.211C1256.33 559.211 1260.25 555.912 1260.25 549.314C1260.25 544.572 1258.39 540.758 1254.68 537.871C1251.17 534.985 1246.02 533.542 1239.21 533.542C1232.61 533.542 1226.02 536.325 1219.42 541.892C1212.82 547.252 1209.52 553.025 1209.52 559.211H1248.49Z" fill="black"/>
<path d="M1444.67 489.935C1448.59 491.172 1451.78 493.337 1454.26 496.43C1456.94 499.316 1458.28 504.058 1458.28 510.656C1458.28 517.254 1456.32 524.47 1452.4 532.304C1448.48 540.139 1442.81 544.057 1435.39 544.057C1431.68 544.057 1428.07 543.232 1424.56 541.582C1421.26 539.933 1416.83 539.108 1411.26 539.108C1405.7 539.108 1400.44 541.067 1395.49 544.984C1390.75 548.902 1388.37 553.644 1388.37 559.211V624.156C1388.37 628.899 1388.17 632.507 1387.76 634.981C1387.55 637.249 1386.62 639.929 1384.97 643.022C1381.88 648.382 1373.84 651.063 1360.85 651.063C1350.95 651.063 1343.83 649.31 1339.5 645.805C1336.2 642.919 1334.35 638.486 1333.94 632.507C1333.94 630.445 1333.94 627.455 1333.94 623.538V514.986C1333.94 510.243 1334.04 506.738 1334.25 504.471C1334.66 501.996 1335.59 499.316 1337.03 496.43C1339.92 490.863 1347.96 488.079 1361.16 488.079C1373.53 488.079 1381.26 490.45 1384.35 495.193C1386.62 498.491 1387.76 501.893 1387.76 505.398C1388.79 503.955 1390.23 502.203 1392.09 500.141C1394.15 498.079 1398.37 495.296 1404.77 491.791C1411.16 488.286 1416.73 486.533 1421.47 486.533C1426.42 486.533 1430.54 486.842 1433.84 487.461C1437.14 487.873 1440.75 488.698 1444.67 489.935Z" fill="black"/>
<path d="M1470.5 636.527C1466.58 634.053 1464.62 630.136 1464.62 624.775C1464.62 619.414 1468.54 611.27 1476.37 600.343C1478.64 596.838 1482.25 595.085 1487.2 595.085C1492.35 595.085 1499.26 597.663 1507.92 602.817C1516.58 607.765 1524.42 610.239 1531.43 610.239C1544.01 610.239 1550.3 607.765 1550.3 602.817C1550.3 598.9 1543.39 596.013 1529.57 594.158C1516.58 592.302 1503.69 587.457 1490.91 579.622C1484.93 575.911 1479.98 570.138 1476.06 562.303C1472.14 554.262 1470.19 544.778 1470.19 533.851C1470.19 501.275 1492.56 484.987 1537.31 484.987C1551.95 484.987 1567 488.492 1582.46 495.502C1589.68 498.801 1593.29 502.924 1593.29 507.872C1593.29 512.821 1591.02 518.903 1586.49 526.119C1581.95 533.335 1577.31 536.943 1572.57 536.943C1570.09 536.943 1565.45 535.397 1558.65 532.304C1552.05 529.212 1544.83 527.665 1537 527.665C1524.83 527.665 1518.75 529.933 1518.75 534.469C1518.75 540.655 1525.76 544.675 1539.78 546.531C1553.39 547.974 1566.59 551.891 1579.37 558.283C1585.35 561.169 1590.3 566.221 1594.22 573.437C1598.34 580.447 1600.4 589.312 1600.4 600.034C1600.4 610.755 1598.34 619.93 1594.22 627.558C1590.3 634.981 1584.73 640.548 1577.52 644.259C1564.32 650.65 1547.72 653.846 1527.72 653.846C1507.92 653.846 1488.85 648.073 1470.5 636.527Z" fill="black"/>
<path d="M1620.59 515.295C1620.59 510.553 1620.69 507.048 1620.9 504.78C1621.31 502.306 1622.24 499.522 1623.68 496.43C1626.57 491.069 1634.61 488.389 1647.81 488.389C1657.71 488.389 1664.72 490.141 1668.84 493.646C1672.35 496.533 1674.2 500.966 1674.41 506.945C1674.61 509.006 1674.72 511.996 1674.72 515.913V624.156C1674.72 628.899 1674.51 632.507 1674.1 634.981C1673.89 637.249 1672.96 639.929 1671.32 643.022C1668.63 648.382 1660.7 651.063 1647.5 651.063C1634.51 651.063 1626.57 648.279 1623.68 642.712C1622.24 639.62 1621.31 636.939 1620.9 634.671C1620.69 632.404 1620.59 628.795 1620.59 623.847V515.295ZM1671.32 458.081C1669.87 460.967 1667.19 463.029 1663.27 464.266C1659.36 465.503 1654.1 466.122 1647.5 466.122C1641.11 466.122 1635.95 465.503 1632.03 464.266C1628.12 463.029 1625.33 460.864 1623.68 457.771C1622.24 454.679 1621.31 451.998 1620.9 449.73C1620.69 447.256 1620.59 443.648 1620.59 438.906C1620.59 434.164 1620.69 430.659 1620.9 428.391C1621.31 425.917 1622.24 423.237 1623.68 420.35C1626.57 414.783 1634.61 412 1647.81 412C1660.8 412 1668.63 414.783 1671.32 420.35C1672.96 423.443 1673.89 426.226 1674.1 428.7C1674.51 430.968 1674.72 434.473 1674.72 439.215C1674.72 443.957 1674.51 447.566 1674.1 450.04C1673.89 452.308 1672.96 454.988 1671.32 458.081Z" fill="black"/>
<path d="M1694.79 569.726C1694.79 544.984 1703.45 524.573 1720.77 508.491C1738.09 492.409 1757.88 484.368 1780.15 484.368C1802.43 484.368 1822.12 492.409 1839.23 508.491C1856.35 524.367 1864.91 544.675 1864.91 569.416C1864.91 586.529 1860.47 601.786 1851.6 615.188C1842.74 628.383 1831.91 638.177 1819.13 644.568C1806.55 650.753 1793.46 653.846 1779.85 653.846C1766.24 653.846 1753.04 650.547 1740.25 643.949C1727.47 637.146 1716.64 627.249 1707.78 614.26C1699.12 601.065 1694.79 586.22 1694.79 569.726ZM1759.43 591.993C1766.03 596.941 1772.73 599.415 1779.54 599.415C1786.34 599.415 1793.15 596.838 1799.95 591.684C1806.76 586.529 1810.16 578.901 1810.16 568.798C1810.16 558.695 1806.96 551.17 1800.57 546.221C1794.18 541.273 1787.27 538.799 1779.85 538.799C1772.42 538.799 1765.51 541.376 1759.12 546.531C1752.73 551.685 1749.53 559.314 1749.53 569.416C1749.53 579.313 1752.83 586.838 1759.43 591.993Z" fill="black"/>
<path d="M1975.52 488.079C1996.14 488.079 2013.25 496.017 2026.86 511.893C2040.68 527.562 2047.58 546.737 2047.58 569.416V623.847C2047.58 628.589 2047.38 632.197 2046.97 634.671C2046.76 636.939 2045.94 639.517 2044.49 642.403C2041.6 647.97 2033.56 650.753 2020.37 650.753C2005.73 650.753 1997.27 646.939 1995 639.31C1993.77 635.805 1993.15 630.548 1993.15 623.538V569.107C1993.15 560.654 1990.67 554.056 1985.72 549.314C1980.98 544.572 1974.49 542.201 1966.24 542.201C1958.2 542.201 1951.6 544.675 1946.44 549.623C1941.49 554.572 1939.02 561.066 1939.02 569.107V623.847C1939.02 628.589 1938.81 632.197 1938.4 634.671C1938.19 636.939 1937.27 639.517 1935.62 642.403C1932.94 647.97 1925 650.753 1911.8 650.753C1898.81 650.753 1890.87 647.97 1887.98 642.403C1886.54 639.31 1885.61 636.63 1885.2 634.362C1884.99 631.888 1884.89 628.28 1884.89 623.538V514.058C1884.89 509.522 1884.99 506.12 1885.2 503.852C1885.61 501.378 1886.64 498.698 1888.29 495.811C1891.18 490.657 1899.12 488.079 1912.11 488.079C1924.69 488.079 1932.42 490.45 1935.31 495.193C1937.37 498.698 1938.4 502.924 1938.4 507.872C1939.22 506.429 1941.08 504.367 1943.97 501.687C1946.85 499.007 1949.64 496.842 1952.32 495.193C1959.33 490.45 1967.06 488.079 1975.52 488.079Z" fill="black"/>
<path d="M2229.6 550.242C2229.6 562.819 2226.4 572.2 2220.01 578.385C2213.82 584.364 2206.91 587.354 2199.28 587.354H2125.98C2125.98 593.127 2129.38 597.972 2136.18 601.889C2142.99 605.807 2149.79 607.765 2156.6 607.765C2168.56 607.765 2177.94 606.528 2184.75 604.054L2188.15 602.817C2193.1 600.549 2197.22 599.415 2200.52 599.415C2207.12 599.415 2212.79 604.054 2217.53 613.332C2220.21 618.899 2221.55 623.641 2221.55 627.558C2221.55 645.908 2199.59 655.083 2155.67 655.083C2140.41 655.083 2126.8 652.506 2114.84 647.351C2103.09 641.991 2093.91 634.981 2087.31 626.321C2074.32 609.621 2067.83 590.962 2067.83 570.344C2067.83 544.366 2076.18 523.645 2092.88 508.182C2109.79 492.512 2130.82 484.677 2155.98 484.677C2184.64 484.677 2205.68 494.78 2219.08 514.986C2226.09 525.707 2229.6 537.459 2229.6 550.242ZM2164.33 559.211C2172.17 559.211 2176.08 555.912 2176.08 549.314C2176.08 544.572 2174.23 540.758 2170.52 537.871C2167.01 534.985 2161.86 533.542 2155.05 533.542C2148.45 533.542 2141.86 536.325 2135.26 541.892C2128.66 547.252 2125.36 553.025 2125.36 559.211H2164.33Z" fill="black"/>
<path d="M2251.01 636.527C2247.09 634.053 2245.14 630.136 2245.14 624.775C2245.14 619.414 2249.05 611.27 2256.89 600.343C2259.16 596.838 2262.77 595.085 2267.71 595.085C2272.87 595.085 2279.78 597.663 2288.44 602.817C2297.1 607.765 2304.93 610.239 2311.95 610.239C2324.52 610.239 2330.81 607.765 2330.81 602.817C2330.81 598.9 2323.91 596.013 2310.09 594.158C2297.1 592.302 2284.21 587.457 2271.43 579.622C2265.45 575.911 2260.5 570.138 2256.58 562.303C2252.66 554.262 2250.7 544.778 2250.7 533.851C2250.7 501.275 2273.08 484.987 2317.82 484.987C2332.46 484.987 2347.52 488.492 2362.98 495.502C2370.2 498.801 2373.81 502.924 2373.81 507.872C2373.81 512.821 2371.54 518.903 2367 526.119C2362.47 533.335 2357.83 536.943 2353.08 536.943C2350.61 536.943 2345.97 535.397 2339.16 532.304C2332.57 529.212 2325.35 527.665 2317.51 527.665C2305.35 527.665 2299.26 529.933 2299.26 534.469C2299.26 540.655 2306.28 544.675 2320.3 546.531C2333.91 547.974 2347.1 551.891 2359.89 558.283C2365.87 561.169 2370.82 566.221 2374.74 573.437C2378.86 580.447 2380.92 589.312 2380.92 600.034C2380.92 610.755 2378.86 619.93 2374.74 627.558C2370.82 634.981 2365.25 640.548 2358.03 644.259C2344.84 650.65 2328.24 653.846 2308.23 653.846C2288.44 653.846 2269.36 648.073 2251.01 636.527Z" fill="black"/>
<path d="M1189.9 740.75C1193.2 746.935 1195.06 752.502 1195.47 757.45C1196.29 762.398 1196.71 769.615 1196.71 779.099V1122.38C1196.71 1150.84 1188.87 1167.54 1173.2 1172.48C1165.36 1174.96 1155.46 1176.2 1143.5 1176.2C1131.54 1176.2 1122.06 1175.17 1115.05 1173.1C1108.04 1171.04 1102.68 1168.57 1098.96 1165.68C1095.25 1162.79 1092.37 1158.67 1090.3 1153.31C1088.24 1146.3 1087.21 1135.58 1087.21 1121.15V913.939C1076.9 926.722 1061.85 947.133 1042.05 975.173C1022.26 1002.8 1009.68 1020.12 1004.32 1027.13C998.955 1034.14 995.243 1039.09 993.181 1041.97C991.119 1044.45 985.964 1048.16 977.716 1053.11C969.88 1057.64 961.219 1059.91 951.734 1059.91C942.661 1059.91 934.207 1057.85 926.371 1053.73C918.947 1049.19 913.586 1044.86 910.287 1040.74L905.338 1033.93C897.09 1023.62 880.8 1001.77 856.467 968.369C832.135 934.556 818.938 916.413 816.876 913.939V1122.38C816.876 1131.87 816.464 1139.08 815.639 1144.03C815.226 1148.57 813.371 1153.72 810.071 1159.5C803.885 1170.63 787.801 1176.2 761.819 1176.2C736.662 1176.2 720.991 1170.63 714.805 1159.5C711.505 1153.72 709.443 1148.36 708.619 1143.41C708.206 1138.47 708 1131.04 708 1121.15V777.862C708 768.377 708.206 761.367 708.619 756.832C709.443 751.883 711.505 746.316 714.805 740.131C720.991 729.41 737.075 724.049 763.057 724.049C774.192 724.049 783.677 725.493 791.513 728.379C799.761 730.853 805.122 733.533 807.597 736.42L811.309 740.131L951.734 924.454C1021.84 831.674 1068.65 770.439 1092.16 740.75C1099.17 729.616 1115.67 724.049 1141.65 724.049C1168.04 724.049 1184.13 729.616 1189.9 740.75Z" fill="black"/>
<path d="M1355.76 1067.33H1546.29C1555.78 1067.33 1562.79 1067.75 1567.33 1068.57C1572.28 1068.98 1577.84 1070.84 1584.03 1074.14C1595.17 1079.91 1600.73 1095.99 1600.73 1122.38C1600.73 1151.25 1593.1 1168.16 1577.84 1173.1C1570.83 1175.58 1560.11 1176.81 1545.68 1176.81H1300.7C1271.84 1176.81 1254.93 1168.98 1249.98 1153.31C1247.5 1146.71 1246.27 1136.2 1246.27 1121.77V777.862C1246.27 756.832 1250.18 742.605 1258.02 735.183C1265.86 727.348 1280.7 723.431 1302.56 723.431H1546.29C1555.78 723.431 1562.79 723.843 1567.33 724.668C1572.28 725.08 1577.84 726.936 1584.03 730.235C1595.17 736.008 1600.73 752.089 1600.73 778.48C1600.73 807.345 1593.1 824.252 1577.84 829.2C1570.83 831.674 1560.11 832.911 1545.68 832.911H1355.76V895.383H1478.25C1487.73 895.383 1494.74 895.795 1499.28 896.62C1504.23 897.032 1509.8 898.888 1515.98 902.187C1527.12 907.959 1532.69 924.041 1532.69 950.432C1532.69 979.297 1524.85 996.203 1509.18 1001.15C1502.17 1003.63 1491.44 1004.86 1477.01 1004.86H1355.76V1067.33Z" fill="black"/>
<path d="M1835 949.195C1898.1 1009.81 1942.84 1055.38 1969.24 1085.89C1982.85 1101.15 1989.65 1114.14 1989.65 1124.86C1989.65 1135.17 1981.4 1147.54 1964.91 1161.97C1948.41 1175.99 1934.8 1183 1924.08 1183C1913.77 1183 1901.19 1174.34 1886.34 1157.02L1750.25 1001.77V1122.38C1750.25 1132.28 1749.84 1139.5 1749.01 1144.03C1748.6 1148.57 1746.74 1153.93 1743.44 1160.11C1737.67 1171.25 1721.59 1176.81 1695.19 1176.81C1666.32 1176.81 1649.41 1168.98 1644.47 1153.31C1641.99 1146.71 1640.75 1136.2 1640.75 1121.77V777.862C1640.75 768.377 1640.96 761.367 1641.37 756.832C1642.2 751.883 1644.26 746.316 1647.56 740.131C1653.33 728.998 1669.42 723.431 1695.81 723.431C1724.68 723.431 1741.79 731.059 1747.16 746.316C1749.22 753.326 1750.25 764.048 1750.25 778.48V896.62C1806.34 833.529 1851.7 781.779 1886.34 741.368C1900.78 724.462 1913.36 716.008 1924.08 716.008C1934.8 716.008 1948.41 723.225 1964.91 737.657C1981.4 751.677 1989.65 764.048 1989.65 774.769C1989.65 785.078 1983.47 797.448 1971.09 811.881C1947.17 839.509 1910.06 877.445 1859.74 925.691L1835 949.195Z" fill="black"/>
<path d="M2288.46 755.594L2455.48 1100.74C2462.49 1114.76 2466 1125.27 2466 1132.28C2466 1147.13 2454.04 1160.53 2430.12 1172.48C2416.1 1179.49 2404.96 1183 2396.72 1183C2388.88 1183 2382.28 1181.14 2376.92 1177.43C2371.97 1173.72 2368.26 1169.8 2365.78 1165.68C2363.72 1161.56 2360.63 1155.37 2356.51 1147.13L2324.34 1080.32H2152.98L2120.81 1147.13C2116.69 1155.37 2113.39 1161.35 2110.92 1165.06C2108.85 1168.77 2105.14 1172.69 2099.78 1176.81C2094.83 1180.53 2088.23 1182.38 2079.98 1182.38C2072.15 1182.38 2061.22 1178.88 2047.2 1171.87C2023.28 1160.32 2011.32 1147.13 2011.32 1132.28C2011.32 1125.27 2014.82 1114.76 2021.83 1100.74L2188.86 754.976C2193.4 745.492 2200.2 737.863 2209.28 732.09C2218.76 726.317 2228.66 723.431 2238.97 723.431C2261.24 723.431 2277.74 734.152 2288.46 755.594ZM2238.35 904.042L2197.52 988.781H2279.8L2238.35 904.042Z" fill="black"/>
<path d="M16.0057 69.0796L8.60784 67.8462C8.53989 68.2538 8.50574 68.6662 8.50573 69.0794L16.0057 69.0796ZM16.0057 69.0796C8.60784 67.8462 8.60836 67.8431 8.60892 67.8397L8.61022 67.832L8.61347 67.8128L8.62261 67.7596C8.62988 67.7176 8.63955 67.6627 8.65172 67.5951C8.67605 67.4601 8.71039 67.2747 8.75559 67.0422C8.84598 66.5775 8.97999 65.9239 9.16455 65.1082C9.53327 63.4785 10.1061 61.1915 10.9396 58.4643C12.5982 53.0375 15.3321 45.7256 19.638 38.345C28.2605 23.5658 43.8051 7.66661 69.9252 7.65742C92.3946 7.64951 227.202 7.64951 356.389 7.65149C420.984 7.65248 484.174 7.65396 531.215 7.65519L587.823 7.65677L603.587 7.65724L607.73 7.65737L608.791 7.65741L609.059 7.65741L609.127 7.65742L609.144 7.65742C609.148 7.65742 609.15 7.65742 609.149 15.1574M16.0057 69.0796C8.50573 69.0794 8.50573 69.0831 8.50573 69.0906L8.50573 69.1241L8.50573 69.2579L8.50572 69.7896L8.50568 71.8913L8.50553 80.0955L8.50497 111.292L8.50311 223.117C8.50166 315.933 8.49991 440.343 8.49875 566.72C8.49642 819.474 8.49642 1080.1 8.50573 1111.58C8.5158 1145.6 23.2627 1165.72 38.4748 1177.13C45.9474 1182.73 53.39 1186.14 58.9612 1188.14C61.7559 1189.15 64.1077 1189.82 65.7971 1190.24C66.6427 1190.45 67.3251 1190.6 67.8172 1190.7C68.0634 1190.75 68.2623 1190.79 68.4105 1190.82C68.4846 1190.83 68.546 1190.84 68.5944 1190.85L68.6572 1190.86L68.6811 1190.87L68.6912 1190.87C68.6958 1190.87 68.7001 1190.87 69.9279 1183.47L68.7001 1190.87C69.1059 1190.94 69.5165 1190.97 69.9279 1190.97H609.149C626.405 1190.97 639.417 1186 648.945 1177.97C658.363 1170.04 663.77 1159.65 666.86 1149.76C669.948 1139.88 670.842 1130.13 670.991 1122.96C671.066 1119.35 670.954 1116.34 670.82 1114.2C670.753 1113.12 670.681 1112.27 670.623 1111.67C670.604 1111.47 670.586 1111.3 670.571 1111.16V69.0796C670.571 42.9767 654.668 27.4322 639.891 18.8064C632.511 14.4981 625.198 11.7603 619.771 10.0983C617.043 9.26317 614.756 8.68884 613.126 8.31901C612.31 8.13389 611.656 7.99942 611.192 7.90871C610.959 7.86334 610.774 7.82887 610.639 7.80444C610.571 7.79223 610.516 7.78253 610.474 7.77522L610.421 7.76605L610.402 7.76279L610.394 7.76149C610.391 7.76093 610.388 7.7604 609.149 15.1574M609.149 15.1574L610.388 7.7604C609.979 7.69188 609.564 7.65743 609.15 7.65742L609.149 15.1574Z" fill="white" stroke="black" stroke-width="15" stroke-linejoin="round"/>
<rect x="87.8945" y="158.941" width="503.273" height="826.806" fill="#9CDFF0"/>
<path d="M87.8945 770.061V788.035" stroke="black" stroke-width="15" stroke-linejoin="round"/>
<path d="M87.8945 841.954V985.746H591.168V302.732" stroke="black" stroke-width="15" stroke-linejoin="round"/>
<path d="M591.164 194.889V158.941" stroke="black" stroke-width="15" stroke-linejoin="round"/>
<path d="M285.617 87.0449H402.449" stroke="black" stroke-width="15" stroke-linejoin="round"/>
<path d="M87.8945 158.941V662.215" stroke="black" stroke-width="15" stroke-linejoin="round"/>
<path d="M87.8945 158.941L519.272 158.941" stroke="black" stroke-width="15" stroke-linejoin="round"/>
<path d="M672.055 149.959H708.003V257.803H672.055" stroke="black" stroke-width="15" stroke-linejoin="round"/>
<g clip-path="url(#clip0_706_10)">
<path d="M224.06 776.071C236.09 770.084 245.402 760.739 250.466 749.574L288.354 745.061L288.005 734.483C287.947 732.588 288.106 730.692 288.48 728.824L292.837 714.376L251.757 713.628C247.816 703.201 240.23 694.085 230.044 687.533C219.859 680.981 207.573 677.315 194.876 677.039C182.179 676.764 169.696 679.892 159.142 685.994C148.587 692.096 140.481 700.872 135.938 711.115C131.395 721.358 130.637 732.564 133.77 743.194C136.903 753.824 143.771 763.355 153.432 770.476C163.092 777.597 175.07 781.958 187.717 782.96C200.365 783.962 213.061 781.556 224.06 776.071V776.071ZM176.258 704.565C182.106 701.649 188.825 700.296 195.563 700.678C202.302 701.059 208.758 703.158 214.116 706.708C219.474 710.259 223.492 715.102 225.663 720.624C227.834 726.147 228.059 732.102 226.311 737.735C224.564 743.369 220.921 748.428 215.843 752.274C210.766 756.119 204.482 758.578 197.787 759.34C191.091 760.101 184.285 759.13 178.228 756.551C172.171 753.971 167.136 749.898 163.76 744.848C159.232 738.074 158.005 730.025 160.349 722.471C162.693 714.917 168.415 708.476 176.258 704.565V704.565Z" fill="#D9D9D9" stroke="black" stroke-width="15"/>
<path d="M478.961 602.176L469.511 596.179C461.752 591.178 451.786 591.397 437.66 596.866C429.752 599.958 417.208 606.008 402.552 617.615C389.667 627.828 324.296 680.641 305.632 715.842C296.804 732.494 302.216 746.208 306.609 757.203C310.589 767.256 313.716 775.205 308.241 786.184C301.907 798.825 295.073 806.694 291.356 810.437C276.972 808.592 262.298 811.228 249.959 817.873C237.62 824.517 228.421 834.737 224.009 846.703C219.597 858.67 220.259 871.601 225.877 883.185C231.495 894.768 241.702 904.246 254.672 909.924C267.642 915.602 282.529 917.109 296.668 914.175C310.806 911.242 323.275 904.058 331.842 893.911C340.409 883.764 344.516 871.315 343.427 858.792C342.339 846.269 336.126 834.489 325.901 825.56L478.961 602.176ZM350.116 740.481C347.777 741.648 345.089 742.189 342.394 742.036C339.698 741.884 337.116 741.044 334.973 739.624C332.83 738.204 331.222 736.267 330.354 734.058C329.486 731.849 329.395 729.467 330.094 727.213C330.794 724.96 332.251 722.936 334.282 721.398C336.313 719.86 338.826 718.876 341.504 718.572C344.182 718.267 346.905 718.655 349.328 719.687C351.75 720.719 353.764 722.348 355.115 724.368C356.926 727.078 357.417 730.297 356.48 733.319C355.542 736.341 353.253 738.917 350.116 740.481V740.481ZM299.21 888.446C293.361 891.362 286.643 892.715 279.904 892.334C273.165 891.952 266.709 889.854 261.351 886.303C255.994 882.753 251.975 877.91 249.805 872.387C247.634 866.864 247.408 860.91 249.156 855.276C250.904 849.643 254.547 844.583 259.624 840.738C264.701 836.892 270.985 834.433 277.68 833.672C284.376 832.911 291.182 833.881 297.239 836.461C303.296 839.04 308.331 843.113 311.707 848.164C316.235 854.937 317.462 862.986 315.119 870.541C312.775 878.095 307.052 884.536 299.21 888.446Z" fill="#D9D9D9" stroke="black" stroke-width="15"/>
<path d="M417.034 710.406L375.693 772.034L401.701 770.2L405.12 769.977C422.806 768.862 469.855 765.901 508.682 749.095C511.656 747.808 514.349 746.558 516.796 745.338C532.079 737.692 537.944 730.248 541.227 725.206L550.221 708.803L417.034 710.406Z" fill="#D9D9D9" stroke="black" stroke-width="15"/>
</g>
<rect x="134.316" y="205.367" width="119.06" height="104.87" rx="22.5" fill="#7CDA6D" stroke="black" stroke-width="15"/>
<rect x="282.816" y="205.367" width="119.06" height="104.87" rx="22.5" fill="#3980A3" stroke="black" stroke-width="15"/>
<rect x="431.379" y="205.367" width="119.06" height="104.87" rx="22.5" fill="#FFFAB0" stroke="black" stroke-width="15"/>
<rect x="134.316" y="349.158" width="119.06" height="104.87" rx="22.5" fill="#FF7462" stroke="black" stroke-width="15"/>
<rect x="282.816" y="349.158" width="119.06" height="104.87" rx="22.5" fill="#F14469" stroke="black" stroke-width="15"/>
<rect x="431.379" y="349.158" width="119.06" height="104.87" rx="22.5" fill="#058969" stroke="black" stroke-width="15"/>
<path d="M342.347 1119.06C374.154 1119.06 401.877 1096.58 401.877 1066.63C401.877 1036.68 374.154 1014.19 342.347 1014.19C310.539 1014.19 282.816 1036.68 282.816 1066.63C282.816 1096.58 310.539 1119.06 342.347 1119.06Z" fill="#FFF8D5" stroke="black" stroke-width="15"/>
<defs>
<clipPath id="clip0_706_10">
<rect width="422.942" height="393.202" fill="white" transform="matrix(0.89492 -0.446226 0.555761 0.831342 51.957 671.203)"/>
</clipPath>
</defs>
</svg>
