<svg width="248" height="416" viewBox="0 0 248 416" fill="none" xmlns="http://www.w3.org/2000/svg">
<path d="M5.00199 23.7037L2.53602 23.2926C2.51337 23.4284 2.50199 23.5659 2.50199 23.7036L5.00199 23.7037ZM5.00199 23.7037C2.53602 23.2926 2.5362 23.2915 2.53639 23.2904L2.53682 23.2878L2.53792 23.2813L2.54104 23.2632L2.55102 23.2068C2.55937 23.1604 2.5712 23.0966 2.58678 23.0164C2.61795 22.8562 2.66422 22.6305 2.72799 22.3487C2.85539 21.7856 3.05342 20.9948 3.34168 20.0517C3.91538 18.1746 4.86076 15.6464 6.34911 13.0953C9.3293 7.98715 14.6926 2.50561 23.7024 2.50244C31.4951 2.4997 78.249 2.4997 123.054 2.50038C145.456 2.50072 167.372 2.50124 183.687 2.50167L203.319 2.50221L208.787 2.50238L210.224 2.50242L210.591 2.50243L210.685 2.50244L210.708 2.50244L210.714 2.50244C210.715 2.50244 210.716 2.50244 210.716 5.00244M5.00199 23.7037C2.50199 23.7036 2.50199 23.7049 2.50199 23.7075L2.50199 23.7191L2.50199 23.7655L2.50198 23.9499L2.50197 24.6789L2.50192 27.5242L2.50172 38.3438L2.50108 77.1268C2.50058 109.317 2.49997 152.465 2.49957 196.295C2.49876 283.955 2.49876 374.345 2.50199 385.262C2.50547 397.027 7.6029 403.978 12.8554 407.916C15.4371 409.852 18.0089 411.028 19.9341 411.722C20.8997 412.07 21.7121 412.301 22.2951 412.446C22.5869 412.519 22.8221 412.57 22.9915 412.605C23.0762 412.622 23.1446 412.636 23.1953 412.645C23.2207 412.65 23.2417 412.653 23.2582 412.656L23.2795 412.66L23.2876 412.661L23.291 412.662C23.2925 412.662 23.294 412.662 23.7032 410.196L23.294 412.662C23.4292 412.685 23.5661 412.696 23.7032 412.696H210.716C216.68 412.696 221.168 410.978 224.453 408.212C227.7 405.478 229.566 401.891 230.634 398.474C231.702 395.059 232.011 391.69 232.062 389.209C232.089 387.961 232.05 386.916 232.003 386.177C231.98 385.806 231.955 385.511 231.935 385.303C231.928 385.232 231.922 385.171 231.917 385.121V23.7037C231.917 14.7 226.434 9.3367 221.327 6.35532C218.775 4.86616 216.247 3.91941 214.37 3.34457C213.426 3.05573 212.636 2.85717 212.072 2.72938C211.791 2.66542 211.565 2.61899 211.405 2.58772C211.325 2.57207 211.261 2.5602 211.214 2.55181L211.158 2.5418L211.14 2.53867L211.133 2.53757L211.131 2.53713C211.13 2.53694 211.129 2.53677 210.716 5.00244M210.716 5.00244L211.129 2.53677C210.992 2.51392 210.854 2.50244 210.716 2.50244L210.716 5.00244Z" fill="white" stroke="black" stroke-width="5" stroke-linejoin="round"/>
<rect x="29.9336" y="54.8691" width="174.545" height="286.752" fill="#9CDFF0"/>
<path d="M29.9336 266.818V273.052" stroke="black" stroke-width="5" stroke-linejoin="round"/>
<path d="M29.9336 291.753V341.623H204.479V104.74" stroke="black" stroke-width="5" stroke-linejoin="round"/>
<path d="M204.48 67.3366V54.8691" stroke="black" stroke-width="5" stroke-linejoin="round"/>
<path d="M98.5117 29.9336H139.031" stroke="black" stroke-width="5" stroke-linejoin="round"/>
<path d="M29.9336 54.8691V229.414" stroke="black" stroke-width="5" stroke-linejoin="round"/>
<path d="M29.9336 54.8691L179.544 54.8691" stroke="black" stroke-width="5" stroke-linejoin="round"/>
<path d="M232.531 51.7559H244.999V89.1584H232.531" stroke="black" stroke-width="5" stroke-linejoin="round"/>
<g clip-path="url(#clip0_709_11)">
<path d="M77.1618 268.902C81.3339 266.825 84.5635 263.584 86.3197 259.712L99.46 258.147L99.339 254.478C99.3191 253.821 99.3742 253.163 99.5036 252.515L101.015 247.505L86.7677 247.245C85.4006 243.629 82.7698 240.467 79.2372 238.195C75.7046 235.923 71.4435 234.651 67.0401 234.556C62.6367 234.46 58.3071 235.545 54.6467 237.661C50.9864 239.778 48.175 242.821 46.5993 246.374C45.0236 249.926 44.7609 253.813 45.8474 257.499C46.9338 261.186 49.316 264.492 52.6664 266.961C56.0168 269.431 60.1709 270.943 64.5573 271.291C68.9437 271.638 73.3471 270.804 77.1618 268.902ZM60.5829 244.102C62.6113 243.091 64.9414 242.622 67.2785 242.754C69.6156 242.886 71.8548 243.614 73.713 244.845C75.5711 246.077 76.9647 247.756 77.7176 249.672C78.4704 251.587 78.5487 253.652 77.9425 255.606C77.3363 257.56 76.0729 259.315 74.312 260.648C72.5511 261.982 70.3718 262.835 68.0497 263.099C65.7276 263.363 63.367 263.026 61.2664 262.132C59.1658 261.237 57.4195 259.825 56.2484 258.073C54.6781 255.724 54.2525 252.932 55.0654 250.312C55.8783 247.692 57.863 245.458 60.5829 244.102Z" fill="#D9D9D9" stroke="black" stroke-width="5"/>
<path d="M165.566 208.591L162.289 206.511C159.598 204.777 156.141 204.853 151.242 206.75C148.499 207.822 144.149 209.92 139.066 213.946C134.597 217.488 111.925 235.804 105.452 248.013C102.39 253.788 104.267 258.544 105.791 262.358C107.172 265.844 108.256 268.601 106.357 272.409C104.16 276.793 101.79 279.522 100.501 280.82C95.5124 280.18 90.4231 281.094 86.1437 283.399C81.8643 285.703 78.674 289.248 77.1438 293.398C75.6136 297.548 75.8432 302.033 77.7917 306.05C79.7401 310.068 83.2802 313.355 87.7784 315.324C92.2767 317.294 97.4395 317.816 102.343 316.799C107.247 315.781 111.571 313.29 114.542 309.771C117.514 306.251 118.938 301.934 118.56 297.59C118.183 293.247 116.028 289.162 112.482 286.065L165.566 208.591ZM120.88 256.558C120.069 256.963 119.137 257.15 118.202 257.097C117.267 257.045 116.371 256.753 115.628 256.261C114.885 255.768 114.327 255.096 114.026 254.33C113.725 253.564 113.694 252.738 113.936 251.956C114.179 251.175 114.684 250.473 115.388 249.94C116.093 249.406 116.965 249.065 117.893 248.959C118.822 248.854 119.766 248.988 120.607 249.346C121.447 249.704 122.145 250.269 122.614 250.97C123.242 251.909 123.412 253.026 123.087 254.074C122.762 255.122 121.968 256.016 120.88 256.558ZM103.225 307.875C101.196 308.887 98.8664 309.356 96.5293 309.224C94.1921 309.091 91.9529 308.363 90.0948 307.132C88.2366 305.901 86.843 304.221 86.0901 302.306C85.3373 300.39 85.259 298.325 85.8652 296.371C86.4714 294.417 87.7348 292.663 89.4957 291.329C91.2567 289.995 93.436 289.142 95.7581 288.878C98.0802 288.614 100.441 288.951 102.541 289.846C104.642 290.74 106.388 292.153 107.559 293.905C109.13 296.254 109.555 299.045 108.742 301.665C107.929 304.285 105.945 306.519 103.225 307.875Z" fill="#D9D9D9" stroke="black" stroke-width="5"/>
<path d="M144.087 246.129L129.749 267.502L138.769 266.866L139.955 266.789C146.089 266.402 162.406 265.375 175.872 259.547C176.904 259.1 177.838 258.667 178.687 258.244C183.987 255.592 186.021 253.01 187.16 251.261L190.279 245.573L144.087 246.129Z" fill="#D9D9D9" stroke="black" stroke-width="5"/>
</g>
<rect x="46.1328" y="71.0723" width="41.0901" height="36.1687" rx="17.5" fill="#7CDA6D" stroke="black" stroke-width="5"/>
<rect x="97.6406" y="71.0723" width="41.0901" height="36.1687" rx="17.5" fill="#3980A3" stroke="black" stroke-width="5"/>
<rect x="149.16" y="71.0723" width="41.0901" height="36.1687" rx="17.5" fill="#FFFAB0" stroke="black" stroke-width="5"/>
<rect x="46.1328" y="120.941" width="41.0901" height="36.1687" rx="17.5" fill="#FF7462" stroke="black" stroke-width="5"/>
<rect x="97.6406" y="120.941" width="41.0901" height="36.1687" rx="17.5" fill="#F14469" stroke="black" stroke-width="5"/>
<rect x="149.16" y="120.941" width="41.0901" height="36.1687" rx="17.5" fill="#058969" stroke="black" stroke-width="5"/>
<path d="M118.186 387.759C129.176 387.759 138.731 379.993 138.731 369.674C138.731 359.355 129.176 351.59 118.186 351.59C107.196 351.59 97.6406 359.355 97.6406 369.674C97.6406 379.993 107.196 387.759 118.186 387.759Z" fill="#FFF8D5" stroke="black" stroke-width="5"/>
<defs>
<clipPath id="clip0_709_11">
<rect width="146.684" height="136.37" fill="white" transform="matrix(0.89492 -0.446226 0.555761 0.831342 17.4727 232.531)"/>
</clipPath>
</defs>
</svg>
