<svg width="248" height="416" viewBox="0 0 248 416" fill="none" xmlns="http://www.w3.org/2000/svg">
<path d="M5.00199 23.7037L2.53602 23.2926C2.51337 23.4285 2.50199 23.5659 2.50199 23.7037L5.00199 23.7037ZM5.00199 23.7037C2.53602 23.2926 2.5362 23.2916 2.53639 23.2904L2.53682 23.2878L2.53792 23.2813L2.54104 23.2632L2.55102 23.2068C2.55937 23.1604 2.5712 23.0966 2.58678 23.0165C2.61795 22.8562 2.66422 22.6305 2.72799 22.3487C2.85539 21.7856 3.05342 20.9949 3.34168 20.0517C3.91538 18.1746 4.86076 15.6464 6.34911 13.0953C9.32931 7.98716 14.6927 2.50561 23.7024 2.50244C31.4952 2.4997 78.2492 2.4997 123.054 2.50038C145.456 2.50072 167.372 2.50124 183.687 2.50167L203.32 2.50221L208.787 2.50238L210.224 2.50242L210.592 2.50243L210.685 2.50244L210.708 2.50244L210.714 2.50244C210.716 2.50244 210.716 2.50244 210.716 5.00244M5.00199 23.7037C2.50199 23.7037 2.50199 23.705 2.50199 23.7076L2.50199 23.7192L2.50199 23.7656L2.50198 23.95L2.50197 24.6789L2.50192 27.5243L2.50172 38.3439L2.50108 77.1269C2.50058 109.317 2.49997 152.465 2.49957 196.296C2.49876 283.956 2.49876 374.346 2.50199 385.263C2.50547 397.028 7.60291 403.979 12.8554 407.917C15.4372 409.853 18.0089 411.029 19.9341 411.723C20.8998 412.071 21.7121 412.301 22.2951 412.447C22.5869 412.52 22.8222 412.571 22.9916 412.606C23.0763 412.623 23.1446 412.636 23.1954 412.646L23.2168 412.65C23.2328 412.653 23.2467 412.655 23.2583 412.657L23.2796 412.661L23.2877 412.662L23.2911 412.663C23.2926 412.663 23.294 412.663 23.7033 410.197L23.294 412.663C23.4293 412.686 23.5662 412.697 23.7033 412.697H210.716C216.68 412.697 221.169 410.979 224.453 408.213C227.7 405.479 229.567 401.892 230.635 398.475C231.702 395.06 232.011 391.691 232.063 389.21C232.089 387.961 232.05 386.917 232.004 386.177C231.981 385.807 231.956 385.512 231.936 385.303C231.929 385.233 231.923 385.172 231.917 385.122V23.7037C231.917 14.7 226.435 9.33671 221.327 6.35533C218.776 4.86616 216.248 3.91942 214.37 3.34457C213.427 3.05574 212.636 2.85717 212.073 2.72938C211.791 2.66542 211.565 2.61899 211.405 2.58772C211.325 2.57207 211.261 2.5602 211.215 2.55181L211.158 2.5418L211.14 2.53867L211.134 2.53757L211.131 2.53713C211.13 2.53694 211.129 2.53677 210.716 5.00244M210.716 5.00244L211.129 2.53677C210.993 2.51392 210.855 2.50244 210.716 2.50244L210.716 5.00244Z" fill="white" stroke="white" stroke-width="5" stroke-linejoin="round"/>
<rect x="29.9336" y="54.8691" width="174.545" height="286.753" fill="#9CDFF0"/>
<path d="M29.9336 266.818V273.052" stroke="black" stroke-width="5" stroke-linejoin="round"/>
<path d="M29.9336 291.751V341.621H204.479V104.738" stroke="black" stroke-width="5" stroke-linejoin="round"/>
<path d="M204.477 67.3367V54.8691" stroke="black" stroke-width="5" stroke-linejoin="round"/>
<path d="M98.5078 29.9336H139.027" stroke="black" stroke-width="5" stroke-linejoin="round"/>
<path d="M29.9336 54.8691V229.414" stroke="black" stroke-width="5" stroke-linejoin="round"/>
<path d="M29.9336 54.8691L179.544 54.8691" stroke="black" stroke-width="5" stroke-linejoin="round"/>
<path d="M232.531 51.7539H244.999V89.1565H232.531" stroke="white" stroke-width="5" stroke-linejoin="round"/>
<g clip-path="url(#clip0_712_25)">
<path d="M77.158 268.904C81.3301 266.827 84.5597 263.586 86.3159 259.714L99.4562 258.149L99.3352 254.48C99.3153 253.823 99.3705 253.165 99.4999 252.517L101.011 247.507L86.7639 247.247C85.3968 243.631 82.766 240.469 79.2334 238.197C75.7007 235.925 71.4397 234.653 67.0363 234.558C62.6328 234.462 58.3032 235.547 54.6428 237.663C50.9825 239.779 48.1712 242.823 46.5954 246.376C45.0197 249.928 44.757 253.815 45.8435 257.501C46.9299 261.188 49.3122 264.494 52.6626 266.963C56.013 269.433 60.167 270.945 64.5535 271.293C68.9399 271.64 73.3432 270.806 77.158 268.904ZM60.5791 244.104C62.6074 243.093 64.9375 242.623 67.2746 242.756C69.6118 242.888 71.851 243.616 73.7091 244.847C75.5673 246.079 76.9609 247.758 77.7138 249.674C78.4666 251.589 78.5449 253.654 77.9387 255.608C77.3325 257.562 76.0691 259.317 74.3082 260.65C72.5473 261.984 70.3679 262.837 68.0458 263.101C65.7237 263.365 63.3631 263.028 61.2625 262.134C59.1619 261.239 57.4156 259.827 56.2446 258.075C54.6742 255.726 54.2487 252.934 55.0615 250.314C55.8744 247.694 57.8591 245.46 60.5791 244.104Z" fill="#D9D9D9" stroke="black" stroke-width="5"/>
<path d="M165.563 208.593L162.285 206.513C159.594 204.779 156.137 204.855 151.238 206.751C148.496 207.824 144.145 209.922 139.062 213.947C134.593 217.49 111.921 235.806 105.448 248.015C102.387 253.79 104.264 258.546 105.787 262.36C107.168 265.846 108.252 268.603 106.353 272.411C104.157 276.795 101.786 279.524 100.497 280.822C95.5086 280.182 90.4193 281.096 86.1399 283.401C81.8605 285.705 78.6702 289.25 77.14 293.4C75.6097 297.55 75.8394 302.035 77.7878 306.052C79.7363 310.07 83.2764 313.357 87.7746 315.326C92.2729 317.296 97.4357 317.818 102.339 316.801C107.243 315.783 111.567 313.292 114.539 309.773C117.51 306.253 118.934 301.936 118.557 297.593C118.179 293.249 116.024 289.164 112.478 286.067L165.563 208.593ZM120.876 256.56C120.065 256.965 119.133 257.152 118.198 257.099C117.263 257.046 116.368 256.755 115.624 256.263C114.881 255.77 114.324 255.098 114.022 254.332C113.721 253.566 113.69 252.74 113.932 251.958C114.175 251.177 114.68 250.475 115.385 249.942C116.089 249.408 116.961 249.067 117.89 248.961C118.818 248.856 119.763 248.99 120.603 249.348C121.443 249.706 122.142 250.271 122.61 250.972C123.238 251.911 123.409 253.028 123.083 254.076C122.758 255.124 121.964 256.018 120.876 256.56ZM103.221 307.877C101.193 308.889 98.8626 309.358 96.5255 309.226C94.1883 309.093 91.9491 308.365 90.091 307.134C88.2328 305.903 86.8392 304.223 86.0863 302.308C85.3335 300.392 85.2552 298.327 85.8614 296.373C86.4676 294.419 87.731 292.665 89.4919 291.331C91.2528 289.997 93.4322 289.145 95.7543 288.88C98.0764 288.616 100.437 288.953 102.538 289.848C104.638 290.742 106.384 292.155 107.556 293.907C109.126 296.256 109.551 299.047 108.739 301.667C107.926 304.287 105.941 306.521 103.221 307.877Z" fill="#D9D9D9" stroke="black" stroke-width="5"/>
<path d="M144.083 246.131L129.745 267.504L138.765 266.868L139.951 266.791C146.085 266.404 162.402 265.377 175.869 259.548C176.9 259.102 177.834 258.669 178.683 258.246C183.983 255.594 186.017 253.012 187.156 251.263L190.275 245.575L144.083 246.131Z" fill="#D9D9D9" stroke="black" stroke-width="5"/>
</g>
<rect x="46.1367" y="71.0723" width="41.0902" height="36.1688" rx="17.5" fill="#7CDA6D" stroke="black" stroke-width="5"/>
<rect x="97.6367" y="71.0723" width="41.0902" height="36.1688" rx="17.5" fill="#3980A3" stroke="black" stroke-width="5"/>
<rect x="149.164" y="71.0723" width="41.0902" height="36.1688" rx="17.5" fill="#FFFAB0" stroke="black" stroke-width="5"/>
<rect x="46.1367" y="120.941" width="41.0902" height="36.1688" rx="17.5" fill="#FF7462" stroke="black" stroke-width="5"/>
<rect x="97.6367" y="120.941" width="41.0902" height="36.1688" rx="17.5" fill="#F14469" stroke="black" stroke-width="5"/>
<rect x="149.164" y="120.941" width="41.0902" height="36.1688" rx="17.5" fill="#058969" stroke="black" stroke-width="5"/>
<path d="M118.182 387.759C129.172 387.759 138.727 379.993 138.727 369.674C138.727 359.355 129.172 351.59 118.182 351.59C107.192 351.59 97.6367 359.355 97.6367 369.674C97.6367 379.993 107.192 387.759 118.182 387.759Z" fill="#FFF8D5" stroke="black" stroke-width="5"/>
<defs>
<clipPath id="clip0_712_25">
<rect width="146.685" height="136.371" fill="white" transform="matrix(0.89492 -0.446226 0.555761 0.831342 17.4688 232.533)"/>
</clipPath>
</defs>
</svg>
