<svg width="829" height="365" viewBox="0 0 829 365" fill="none" xmlns="http://www.w3.org/2000/svg">
<g clip-path="url(#clip0_718_2)">
<path d="M246.628 300.39C243.778 322.72 233.298 343.15 222.118 362.83C221.748 363.5 221.368 364.16 220.978 364.83H104.778C102.428 364.22 100.108 363.55 97.7981 362.83C84.6737 358.834 72.2832 352.738 61.1082 344.78C18.3582 313.98 1.90797 255.78 9.33816 203.63C13.9583 171.23 28.178 138.15 55.868 120.7C70.4881 111.47 89.2679 108.47 106.098 111.9C106.538 111.98 106.978 112.08 107.428 112.17C121.908 115.43 134.808 123.53 142.148 136.58C155.348 160.03 147.488 189.08 140.998 215.18C134.528 241.28 131.018 272.52 149.798 291.77C143.598 273.52 149.718 251.75 164.528 239.41C175.718 230.099 191.298 226.61 205.508 229.5C206.868 229.79 208.208 230.12 209.528 230.52C212.718 231.454 215.794 232.742 218.698 234.36C240.848 246.73 249.818 275.22 246.628 300.39Z" fill="#F2F2F2"/>
<path d="M177.73 362.83C180.949 363.58 184.179 364.24 187.429 364.83H169.86C167.559 364.21 165.269 363.55 163 362.83C158.01 361.27 153.096 359.48 148.26 357.46C128.86 349.32 110.99 337.1 97.4695 320.84C90.8573 312.962 85.4579 304.141 81.4495 294.67C77.103 283.964 74.3407 272.682 73.2498 261.18C70.7996 237.58 73.2996 213.33 77.9695 190.15C82.7889 166.125 90.5683 142.79 101.13 120.68C102.4 118.03 103.713 115.396 105.07 112.78C105.163 112.564 105.304 112.373 105.483 112.221C105.661 112.068 105.872 111.958 106.099 111.9C106.561 111.81 107.039 111.907 107.43 112.17C107.898 112.438 108.245 112.877 108.4 113.394C108.554 113.911 108.504 114.468 108.26 114.95C97.3702 136.185 89.1157 158.672 83.6795 181.91C78.3597 204.58 75.3397 228.3 76.3694 251.61C77.3494 273.39 83.0399 294.81 95.9495 312.62C107.74 328.88 124.019 341.7 142.03 350.43C153.429 355.884 165.404 360.043 177.73 362.83V362.83Z" fill="white"/>
<path d="M216.29 364.83H211.11C210.53 364.17 209.97 363.5 209.42 362.83C197.621 348.494 189.628 331.414 186.18 313.17C181.992 290.402 185.25 266.891 195.47 246.12C198.321 240.296 201.681 234.734 205.51 229.5C206.87 229.79 208.21 230.12 209.53 230.52C199.458 243.864 192.684 259.4 189.76 275.86C187.151 291.284 188.018 307.096 192.298 322.142C196.579 337.188 204.164 351.089 214.5 362.83C215.08 363.5 215.68 364.17 216.29 364.83Z" fill="white"/>
<path d="M682.931 347.821C683.683 353.715 686.449 359.106 689.399 364.3C689.497 364.477 689.597 364.651 689.7 364.828H720.367C720.988 364.667 721.6 364.49 722.21 364.3C725.673 363.246 728.943 361.637 731.893 359.537C743.175 351.408 747.517 336.048 745.556 322.284C744.336 313.734 740.584 305.003 733.276 300.398C729.307 297.981 724.573 297.151 720.019 298.075C719.903 298.096 719.787 298.123 719.668 298.146C717.773 298.513 715.976 299.276 714.397 300.387C712.818 301.497 711.491 302.929 710.505 304.589C707.021 310.778 709.096 318.444 710.808 325.333C712.516 332.221 713.442 340.466 708.486 345.546C709.212 343.422 709.36 341.142 708.913 338.941C708.467 336.741 707.442 334.699 705.945 333.025C704.448 331.352 702.532 330.107 700.395 329.42C698.257 328.732 695.975 328.626 693.783 329.112C693.424 329.189 693.07 329.276 692.722 329.381C691.88 329.628 691.068 329.968 690.302 330.395C684.456 333.659 682.089 341.178 682.931 347.821Z" fill="#F2F2F2"/>
<path d="M701.115 364.302C700.265 364.5 699.412 364.674 698.555 364.83H703.192C703.799 364.666 704.403 364.492 705.002 364.302C706.319 363.89 707.616 363.418 708.892 362.885C714.07 360.783 718.667 357.468 722.297 353.22C724.042 351.141 725.467 348.813 726.525 346.313C727.672 343.488 728.401 340.51 728.689 337.475C729.215 331.199 728.795 324.88 727.443 318.729C726.171 312.388 724.118 306.23 721.331 300.394C720.996 299.695 720.649 299 720.291 298.309C720.266 298.252 720.229 298.202 720.182 298.162C720.135 298.121 720.079 298.092 720.019 298.077C719.897 298.053 719.771 298.079 719.668 298.148C719.545 298.219 719.453 298.335 719.412 298.471C719.371 298.608 719.385 298.755 719.449 298.882C722.323 304.486 724.502 310.421 725.936 316.554C727.414 322.569 728.063 328.758 727.865 334.949C727.76 340.707 725.963 346.307 722.698 351.051C719.523 355.323 715.347 358.75 710.537 361.029C707.528 362.469 704.368 363.567 701.115 364.302Z" fill="white"/>
<path d="M690.938 364.829H692.305C692.458 364.655 692.606 364.478 692.751 364.302C695.865 360.518 697.974 356.01 698.884 351.195C699.989 345.187 699.13 338.982 696.432 333.5C695.68 331.962 694.793 330.495 693.783 329.113C693.424 329.19 693.07 329.277 692.722 329.382C695.38 332.904 697.167 337.004 697.939 341.349C698.628 345.419 698.399 349.592 697.269 353.563C696.14 357.534 694.138 361.203 691.41 364.302C691.257 364.478 691.099 364.655 690.938 364.829Z" fill="white"/>
<path d="M406.512 212.509H310.531L309.513 182.998C309.469 181.719 309.703 180.445 310.198 179.265C310.693 178.085 311.439 177.026 312.382 176.161C313.326 175.296 314.446 174.647 315.665 174.256C316.884 173.866 318.173 173.744 319.444 173.9L375.298 180.739H375.305C383.586 180.761 391.52 184.065 397.369 189.926C403.219 195.788 406.506 203.728 406.512 212.009V212.509Z" fill="#00BFA6"/>
<path d="M363.729 107.828H296.787C295.896 107.828 295.015 108.003 294.192 108.344C293.37 108.684 292.622 109.184 291.993 109.813C291.363 110.443 290.864 111.19 290.523 112.013C290.183 112.835 290.008 113.717 290.008 114.607V181.549C290.008 182.439 290.183 183.321 290.523 184.144C290.864 184.966 291.363 185.714 291.993 186.343C292.622 186.973 293.37 187.472 294.192 187.813C295.015 188.153 295.896 188.328 296.787 188.328H363.729C364.619 188.328 365.501 188.153 366.323 187.813C367.146 187.472 367.893 186.973 368.523 186.343C369.152 185.714 369.652 184.966 369.992 184.144C370.333 183.321 370.508 182.439 370.508 181.549V114.607C370.508 113.717 370.333 112.835 369.992 112.013C369.652 111.19 369.152 110.443 368.523 109.813C367.893 109.184 367.146 108.684 366.323 108.344C365.501 108.003 364.619 107.828 363.729 107.828V107.828Z" fill="#CCCCCC"/>
<path d="M296.939 146.947L296.441 146.995C296.444 147.022 296.449 147.049 296.456 147.076L296.939 146.947ZM296.939 146.947C296.441 146.995 296.441 146.995 296.441 146.994L296.441 146.994L296.441 146.993L296.441 146.991L296.44 146.984L296.439 146.966C296.438 146.952 296.437 146.932 296.436 146.909C296.434 146.861 296.433 146.796 296.436 146.717C296.441 146.562 296.461 146.347 296.525 146.115C296.651 145.65 296.975 145.055 297.741 144.85C298.271 144.708 301.453 143.855 304.502 143.038L308.628 141.933L309.964 141.575L310.336 141.475L310.434 141.449L310.459 141.442L310.465 141.441L310.467 141.44L310.467 141.44C310.467 141.44 310.467 141.44 310.596 141.923M296.939 146.947C296.456 147.076 296.456 147.076 296.456 147.076L296.456 147.077L296.457 147.08L296.46 147.093L296.474 147.142L296.526 147.336L296.723 148.072L297.43 150.711L299.603 158.821C301.201 164.786 302.849 170.937 303.048 171.68C303.292 172.587 303.842 173.042 304.358 173.249C304.606 173.349 304.835 173.387 305.003 173.401C305.087 173.408 305.158 173.41 305.209 173.409C305.235 173.408 305.257 173.407 305.273 173.406L305.294 173.405L305.302 173.404L305.305 173.404L305.306 173.404L305.307 173.404C305.307 173.404 305.307 173.404 305.259 172.906L305.307 173.404C305.335 173.401 305.362 173.396 305.388 173.389L318.114 169.979C318.584 169.853 318.927 169.615 319.149 169.296C319.366 168.985 319.438 168.641 319.45 168.349C319.462 168.056 319.415 167.789 319.369 167.601C319.346 167.506 319.321 167.427 319.302 167.37C319.293 167.343 319.285 167.321 319.279 167.304L312.693 142.725C312.488 141.96 311.893 141.636 311.429 141.509C311.197 141.446 310.981 141.425 310.826 141.42C310.748 141.417 310.682 141.418 310.635 141.42C310.611 141.421 310.592 141.422 310.577 141.423L310.559 141.424L310.553 141.425L310.55 141.425L310.549 141.425L310.549 141.425C310.549 141.425 310.549 141.425 310.596 141.923M310.596 141.923L310.549 141.425C310.521 141.428 310.494 141.433 310.467 141.44L310.596 141.923Z" fill="white" stroke="black" stroke-linejoin="round"/>
<rect x="299.203" y="148.613" width="12.2966" height="20.2016" transform="rotate(-15 299.203 148.613)" fill="#9CDFF0"/>
<path d="M303.066 163.035L303.18 163.459" stroke="black" stroke-linejoin="round"/>
<path d="M303.523 164.732L304.433 168.126L316.31 164.943L311.991 148.823" stroke="black" stroke-linejoin="round"/>
<path d="M311.309 146.278L311.082 145.43" stroke="black" stroke-linejoin="round"/>
<path d="M303.414 145.666L306.171 144.927" stroke="black" stroke-linejoin="round"/>
<path d="M299.203 148.613L302.386 160.491" stroke="black" stroke-linejoin="round"/>
<path d="M299.203 148.613L309.384 145.885" stroke="black" stroke-linejoin="round"/>
<path d="M312.934 144.707L313.782 144.48L314.464 147.025L313.616 147.252" stroke="black" stroke-linejoin="round"/>
<g clip-path="url(#clip1_718_2)">
<path d="M306.319 162.316C306.565 162.099 306.726 161.819 306.775 161.524L307.641 161.178L307.566 160.93C307.552 160.886 307.544 160.84 307.541 160.794L307.552 160.425L306.578 160.667C306.419 160.446 306.183 160.279 305.901 160.189C305.619 160.099 305.306 160.09 305.004 160.164C304.703 160.237 304.428 160.39 304.218 160.601C304.007 160.812 303.871 161.07 303.829 161.34C303.786 161.611 303.839 161.88 303.981 162.111C304.122 162.342 304.344 162.524 304.617 162.631C304.89 162.738 305.2 162.765 305.505 162.709C305.81 162.652 306.095 162.515 306.319 162.316V162.316ZM304.739 160.931C304.859 160.825 305.009 160.751 305.17 160.717C305.332 160.683 305.497 160.692 305.646 160.742C305.795 160.792 305.92 160.881 306.007 160.998C306.093 161.114 306.136 161.253 306.13 161.397C306.125 161.541 306.071 161.684 305.975 161.807C305.88 161.929 305.747 162.027 305.594 162.087C305.44 162.148 305.274 162.168 305.114 162.145C304.955 162.123 304.81 162.059 304.699 161.961C304.549 161.829 304.469 161.647 304.477 161.454C304.484 161.261 304.579 161.073 304.739 160.931V160.931Z" fill="#D9D9D9" stroke="black"/>
<path d="M311.236 156.6L310.975 156.518C310.76 156.449 310.526 156.517 310.227 156.736C310.06 156.859 309.803 157.081 309.53 157.447C309.291 157.77 308.082 159.43 307.864 160.379C307.761 160.827 307.975 161.117 308.148 161.349C308.306 161.561 308.43 161.728 308.37 162.022C308.301 162.361 308.189 162.589 308.125 162.701C307.774 162.749 307.444 162.904 307.195 163.139C306.946 163.373 306.793 163.673 306.765 163.983C306.737 164.293 306.834 164.594 307.04 164.832C307.246 165.07 307.547 165.229 307.889 165.281C308.231 165.333 308.591 165.275 308.907 165.116C309.222 164.957 309.47 164.709 309.609 164.415C309.747 164.122 309.765 163.802 309.66 163.513C309.555 163.225 309.334 162.986 309.036 162.84L311.236 156.6ZM309.07 160.679C309.022 160.721 308.962 160.751 308.897 160.764C308.833 160.778 308.766 160.774 308.707 160.754C308.647 160.734 308.597 160.699 308.563 160.652C308.528 160.605 308.511 160.55 308.513 160.492C308.515 160.435 308.537 160.378 308.575 160.328C308.613 160.279 308.666 160.24 308.728 160.216C308.789 160.192 308.856 160.184 308.919 160.193C308.983 160.202 309.041 160.228 309.086 160.267C309.145 160.319 309.177 160.392 309.174 160.469C309.171 160.547 309.134 160.622 309.07 160.679V160.679ZM308.804 164.493C308.684 164.599 308.534 164.673 308.373 164.707C308.211 164.74 308.046 164.731 307.897 164.682C307.748 164.632 307.622 164.543 307.536 164.426C307.45 164.31 307.407 164.17 307.413 164.026C307.418 163.882 307.472 163.74 307.568 163.617C307.663 163.494 307.796 163.396 307.949 163.336C308.103 163.276 308.269 163.256 308.429 163.278C308.588 163.301 308.732 163.365 308.844 163.463C308.994 163.594 309.074 163.776 309.066 163.97C309.058 164.163 308.964 164.351 308.804 164.493Z" fill="#D9D9D9" stroke="black"/>
<path d="M310.457 159.546L309.871 161.262L310.473 161.054L310.553 161.027C310.963 160.889 312.055 160.522 312.865 159.88C312.927 159.83 312.983 159.784 313.033 159.74C313.345 159.463 313.436 159.25 313.482 159.11L313.59 158.666L310.457 159.546Z" fill="#D9D9D9" stroke="black"/>
</g>
<rect x="300.204" y="149.191" width="3.54254" height="3.19583" rx="1.59791" transform="rotate(-15 300.204 149.191)" fill="#7CDA6D" stroke="black"/>
<rect x="303.708" y="148.252" width="3.54254" height="3.19583" rx="1.59791" transform="rotate(-15 303.708 148.252)" fill="#3980A3" stroke="black"/>
<rect x="307.216" y="147.312" width="3.54254" height="3.19583" rx="1.59791" transform="rotate(-15 307.216 147.312)" fill="#FFFAB0" stroke="black"/>
<rect x="301.114" y="152.584" width="3.54254" height="3.19583" rx="1.59791" transform="rotate(-15 301.114 152.584)" fill="#FF7462" stroke="black"/>
<rect x="304.618" y="151.646" width="3.54254" height="3.19583" rx="1.59791" transform="rotate(-15 304.618 151.646)" fill="#F14469" stroke="black"/>
<rect x="308.126" y="150.705" width="3.54254" height="3.19583" rx="1.59791" transform="rotate(-15 308.126 150.705)" fill="#058969" stroke="black"/>
<path d="M311.363 169.97C312.239 169.736 312.906 168.885 312.661 167.968C312.415 167.052 311.412 166.649 310.536 166.883C309.66 167.118 308.993 167.969 309.239 168.885C309.484 169.802 310.487 170.205 311.363 169.97Z" fill="#FFF8D5" stroke="black"/>
<path d="M317.778 152.292C317.751 152.191 317.733 152.115 317.725 152.066C317.72 152.011 317.727 151.945 317.745 151.87C317.777 151.734 317.938 151.628 318.228 151.55C318.545 151.465 318.755 151.496 318.857 151.642C318.9 151.711 318.942 151.822 318.983 151.976L319.965 155.638C319.993 155.743 320.009 155.822 320.013 155.872C320.021 155.922 320.016 155.984 319.997 156.06C319.966 156.195 319.805 156.302 319.515 156.38C319.198 156.465 318.989 156.431 318.89 156.279C318.844 156.216 318.801 156.108 318.76 155.954L317.778 152.292Z" fill="black"/>
<path d="M321.724 152.067C322.177 151.946 322.599 152.014 322.989 152.272C323.382 152.525 323.643 152.892 323.772 153.375L324.083 154.535C324.11 154.636 324.126 154.714 324.131 154.769C324.14 154.818 324.136 154.878 324.121 154.948C324.089 155.084 323.928 155.19 323.638 155.268C323.317 155.354 323.109 155.323 323.016 155.174C322.968 155.106 322.925 154.998 322.885 154.849L322.574 153.689C322.526 153.509 322.434 153.383 322.298 153.311C322.167 153.238 322.01 153.226 321.829 153.275C321.652 153.322 321.522 153.414 321.436 153.549C321.356 153.684 321.339 153.837 321.385 154.008L321.697 155.174C321.724 155.275 321.74 155.353 321.745 155.408C321.753 155.458 321.748 155.518 321.728 155.589C321.701 155.724 321.542 155.83 321.252 155.907C320.967 155.984 320.776 155.971 320.681 155.87C320.632 155.812 320.596 155.761 320.574 155.715C320.555 155.663 320.533 155.587 320.505 155.486L319.881 153.154C319.855 153.058 319.838 152.985 319.829 152.935C319.824 152.88 319.832 152.817 319.851 152.746C319.885 152.619 320.045 152.517 320.331 152.441C320.607 152.367 320.791 152.372 320.881 152.456C320.946 152.518 320.993 152.602 321.021 152.708C321.031 152.672 321.06 152.617 321.109 152.543C321.157 152.469 321.206 152.406 321.255 152.356C321.382 152.213 321.538 152.117 321.724 152.067Z" fill="black"/>
<path d="M327.28 150.663C327.552 150.736 327.709 150.85 327.75 151.003C327.774 151.091 327.761 151.224 327.711 151.402L326.931 154.117C326.905 154.204 326.851 154.292 326.768 154.38C326.683 154.464 326.591 154.519 326.492 154.546C326.396 154.571 326.298 154.574 326.195 154.555C326.096 154.529 326.022 154.497 325.973 154.459L325.892 154.403L323.85 152.437C323.721 152.316 323.643 152.21 323.619 152.117C323.576 151.959 323.655 151.781 323.854 151.581C324 151.439 324.123 151.354 324.223 151.327C324.323 151.301 324.408 151.311 324.479 151.358C324.553 151.399 324.638 151.47 324.733 151.572L326.068 152.993L326.514 151.095C326.542 150.998 326.562 150.929 326.575 150.888C326.592 150.841 326.623 150.793 326.667 150.743C326.711 150.689 326.779 150.65 326.869 150.625C326.96 150.601 327.097 150.614 327.28 150.663Z" fill="black"/>
<path d="M331.586 150.844C331.658 151.112 331.642 151.33 331.536 151.5C331.435 151.663 331.3 151.768 331.132 151.813L329.521 152.244C329.554 152.367 329.656 152.451 329.828 152.494C330 152.537 330.161 152.539 330.31 152.499C330.573 152.428 330.772 152.347 330.908 152.254L330.976 152.208C331.071 152.13 331.156 152.082 331.228 152.062C331.373 152.023 331.524 152.089 331.681 152.259C331.772 152.361 331.829 152.454 331.851 152.538C331.956 152.929 331.525 153.253 330.56 153.512C330.225 153.602 329.911 153.627 329.619 153.588C329.33 153.543 329.088 153.448 328.894 153.302C328.513 153.023 328.264 152.664 328.146 152.225C327.998 151.671 328.063 151.181 328.342 150.753C328.624 150.32 329.042 150.029 329.594 149.881C330.224 149.712 330.744 149.803 331.154 150.155C331.369 150.342 331.514 150.572 331.586 150.844ZM330.203 151.419C330.376 151.373 330.443 151.28 330.405 151.139C330.378 151.038 330.316 150.968 330.218 150.928C330.124 150.887 330.002 150.887 329.853 150.927C329.708 150.966 329.579 151.064 329.465 151.222C329.351 151.375 329.311 151.517 329.347 151.649L330.203 151.419Z" fill="black"/>
<path d="M334.12 148.788C334.213 148.792 334.295 148.819 334.367 148.87C334.443 148.916 334.499 149.009 334.537 149.15C334.575 149.29 334.573 149.455 334.531 149.645C334.49 149.835 334.388 149.952 334.224 149.996C334.143 150.018 334.059 150.021 333.972 150.007C333.89 149.991 333.788 150 333.666 150.032C333.544 150.065 333.439 150.138 333.353 150.251C333.271 150.362 333.246 150.477 333.278 150.595L333.648 151.979C333.675 152.08 333.691 152.158 333.696 152.213C333.705 152.262 333.7 152.325 333.681 152.4C333.644 152.533 333.482 152.637 333.197 152.714C332.979 152.772 332.813 152.777 332.698 152.727C332.609 152.685 332.543 152.602 332.499 152.477C332.488 152.433 332.471 152.369 332.448 152.286L331.829 149.974C331.802 149.873 331.784 149.798 331.776 149.748C331.771 149.693 331.776 149.631 331.791 149.561C331.823 149.425 331.983 149.318 332.273 149.241C332.545 149.168 332.729 149.173 332.824 149.256C332.893 149.313 332.937 149.378 332.957 149.453C332.971 149.416 332.993 149.37 333.022 149.315C333.056 149.259 333.133 149.175 333.253 149.063C333.374 148.951 333.486 148.881 333.59 148.853C333.699 148.823 333.791 148.806 333.867 148.8C333.942 148.789 334.026 148.785 334.12 148.788Z" fill="black"/>
<path d="M335.524 151.758C335.423 151.729 335.358 151.657 335.327 151.543C335.297 151.429 335.337 151.232 335.446 150.953C335.476 150.865 335.546 150.807 335.654 150.777C335.768 150.747 335.934 150.761 336.154 150.82C336.372 150.875 336.559 150.881 336.713 150.84C336.989 150.766 337.113 150.676 337.085 150.571C337.063 150.487 336.895 150.466 336.58 150.508C336.284 150.545 335.973 150.518 335.648 150.426C335.495 150.382 335.353 150.289 335.222 150.145C335.09 149.997 334.993 149.806 334.931 149.574C334.745 148.88 335.144 148.401 336.127 148.138C336.449 148.051 336.8 148.037 337.18 148.096C337.357 148.123 337.46 148.19 337.488 148.295C337.516 148.401 337.501 148.544 337.443 148.724C337.384 148.904 337.303 149.009 337.199 149.036C337.144 149.051 337.034 149.045 336.866 149.02C336.704 148.993 336.536 149.002 336.364 149.048C336.097 149.12 335.976 149.204 336.002 149.301C336.037 149.432 336.214 149.477 336.533 149.434C336.84 149.384 337.153 149.39 337.47 149.451C337.618 149.477 337.756 149.556 337.883 149.686C338.013 149.811 338.109 149.988 338.171 150.216C338.232 150.445 338.239 150.652 338.192 150.839C338.148 151.02 338.057 151.171 337.92 151.293C337.666 151.507 337.32 151.673 336.88 151.79C336.445 151.907 335.993 151.896 335.524 151.758Z" fill="black"/>
<path d="M338.131 148.293C338.104 148.192 338.086 148.116 338.077 148.067C338.072 148.012 338.077 147.947 338.091 147.873C338.124 147.741 338.285 147.637 338.575 147.559C338.793 147.501 338.957 147.497 339.068 147.547C339.161 147.588 339.227 147.672 339.266 147.798C339.282 147.84 339.301 147.904 339.324 147.987L339.941 150.292C339.969 150.393 339.985 150.471 339.99 150.527C339.998 150.576 339.993 150.639 339.974 150.714C339.946 150.844 339.787 150.948 339.497 151.026C339.211 151.102 339.021 151.09 338.926 150.988C338.876 150.931 338.841 150.879 338.819 150.833C338.801 150.786 338.778 150.71 338.75 150.605L338.131 148.293ZM338.919 146.775C338.904 146.845 338.857 146.905 338.777 146.954C338.698 147.004 338.586 147.048 338.441 147.087C338.301 147.124 338.184 147.142 338.091 147.138C337.998 147.135 337.924 147.105 337.87 147.049C337.821 146.992 337.785 146.94 337.763 146.894C337.745 146.843 337.722 146.767 337.695 146.666C337.668 146.565 337.65 146.489 337.641 146.44C337.636 146.385 337.641 146.322 337.657 146.252C337.688 146.117 337.849 146.01 338.139 145.932C338.425 145.856 338.613 145.869 338.704 145.972C338.758 146.028 338.794 146.082 338.812 146.133C338.834 146.179 338.859 146.252 338.886 146.353C338.913 146.454 338.929 146.533 338.934 146.588C338.943 146.637 338.938 146.7 338.919 146.775Z" fill="black"/>
<path d="M340.072 149.015C339.931 148.488 340.005 148.002 340.293 147.558C340.582 147.113 340.972 146.825 341.461 146.694C341.95 146.563 342.429 146.618 342.897 146.86C343.364 147.097 343.668 147.48 343.809 148.006C343.907 148.371 343.896 148.722 343.778 149.06C343.658 149.393 343.476 149.665 343.232 149.877C342.991 150.082 342.72 150.225 342.421 150.306C342.122 150.386 341.813 150.393 341.495 150.328C341.175 150.258 340.881 150.111 340.612 149.887C340.346 149.657 340.166 149.366 340.072 149.015ZM341.62 149.108C341.793 149.175 341.954 149.188 342.104 149.148C342.254 149.108 342.388 149.013 342.508 148.863C342.629 148.713 342.66 148.531 342.602 148.316C342.545 148.101 342.431 147.959 342.263 147.891C342.094 147.824 341.928 147.812 341.765 147.855C341.602 147.899 341.465 147.995 341.353 148.142C341.242 148.289 341.216 148.471 341.273 148.686C341.33 148.897 341.445 149.038 341.62 149.108Z" fill="black"/>
<path d="M345.776 145.623C346.229 145.501 346.65 145.57 347.04 145.828C347.433 146.08 347.694 146.448 347.824 146.931L348.135 148.09C348.162 148.191 348.178 148.269 348.183 148.324C348.191 148.374 348.188 148.433 348.172 148.503C348.141 148.639 347.98 148.746 347.69 148.823C347.368 148.91 347.161 148.878 347.067 148.729C347.02 148.662 346.976 148.553 346.936 148.404L346.626 147.245C346.577 147.065 346.485 146.939 346.35 146.867C346.218 146.794 346.062 146.782 345.881 146.83C345.704 146.877 345.573 146.969 345.488 147.105C345.407 147.239 345.39 147.392 345.436 147.563L345.748 148.729C345.776 148.83 345.792 148.908 345.797 148.963C345.805 149.013 345.799 149.073 345.78 149.145C345.752 149.279 345.594 149.385 345.304 149.463C345.018 149.539 344.828 149.527 344.733 149.425C344.683 149.368 344.648 149.316 344.626 149.27C344.607 149.219 344.584 149.142 344.557 149.041L343.932 146.71C343.906 146.613 343.889 146.54 343.881 146.491C343.876 146.435 343.883 146.372 343.903 146.301C343.937 146.174 344.097 146.073 344.382 145.996C344.659 145.922 344.842 145.927 344.933 146.011C344.998 146.074 345.045 146.158 345.073 146.263C345.083 146.227 345.112 146.172 345.16 146.098C345.208 146.024 345.257 145.962 345.307 145.911C345.434 145.769 345.59 145.673 345.776 145.623Z" fill="black"/>
<path d="M351.715 145.45C351.786 145.718 351.77 145.937 351.665 146.106C351.563 146.27 351.428 146.374 351.26 146.419L349.649 146.851C349.682 146.974 349.785 147.057 349.956 147.101C350.128 147.144 350.289 147.146 350.439 147.105C350.701 147.035 350.901 146.953 351.036 146.861L351.104 146.814C351.2 146.737 351.284 146.688 351.356 146.669C351.501 146.63 351.652 146.696 351.81 146.865C351.9 146.968 351.957 147.061 351.979 147.145C352.084 147.535 351.654 147.86 350.688 148.119C350.353 148.209 350.039 148.234 349.747 148.194C349.458 148.15 349.216 148.054 349.022 147.909C348.641 147.63 348.392 147.27 348.274 146.831C348.126 146.278 348.191 145.787 348.47 145.36C348.752 144.926 349.17 144.636 349.723 144.488C350.353 144.319 350.872 144.41 351.282 144.762C351.498 144.949 351.642 145.178 351.715 145.45ZM350.331 146.026C350.504 145.98 350.571 145.886 350.533 145.746C350.506 145.645 350.444 145.575 350.346 145.535C350.252 145.494 350.131 145.494 349.981 145.534C349.836 145.573 349.707 145.671 349.594 145.828C349.479 145.981 349.44 146.124 349.475 146.255L350.331 146.026Z" fill="black"/>
<path d="M352.678 147.162C352.578 147.132 352.512 147.061 352.482 146.946C352.451 146.832 352.491 146.636 352.6 146.357C352.63 146.269 352.7 146.21 352.808 146.181C352.922 146.151 353.088 146.165 353.308 146.224C353.527 146.278 353.713 146.285 353.867 146.243C354.143 146.169 354.267 146.08 354.239 145.974C354.217 145.891 354.049 145.87 353.734 145.912C353.438 145.949 353.127 145.921 352.802 145.83C352.649 145.786 352.507 145.692 352.377 145.548C352.245 145.4 352.147 145.21 352.085 144.977C351.899 144.283 352.298 143.805 353.281 143.541C353.603 143.455 353.954 143.441 354.334 143.499C354.511 143.527 354.614 143.593 354.642 143.699C354.671 143.804 354.655 143.947 354.597 144.128C354.538 144.308 354.457 144.412 354.353 144.44C354.298 144.455 354.188 144.449 354.02 144.423C353.858 144.396 353.69 144.406 353.518 144.452C353.251 144.524 353.13 144.608 353.156 144.704C353.191 144.836 353.368 144.88 353.687 144.837C353.994 144.788 354.307 144.794 354.624 144.854C354.772 144.881 354.91 144.959 355.037 145.09C355.168 145.215 355.263 145.391 355.325 145.62C355.386 145.848 355.393 146.056 355.346 146.242C355.302 146.424 355.211 146.575 355.074 146.696C354.82 146.91 354.474 147.076 354.034 147.194C353.599 147.311 353.147 147.3 352.678 147.162Z" fill="black"/>
<path d="M329.952 155.631C330.059 155.743 330.132 155.851 330.169 155.954C330.216 156.054 330.266 156.205 330.32 156.407L332.279 163.719C332.441 164.325 332.365 164.726 332.048 164.924C331.89 165.023 331.68 165.108 331.417 165.178C331.154 165.248 330.94 165.282 330.774 165.28C330.608 165.277 330.476 165.256 330.378 165.216C330.28 165.177 330.193 165.106 330.117 165.004C330.032 164.867 329.948 164.644 329.866 164.337L328.683 159.924C328.529 160.257 328.315 160.78 328.04 161.494C327.763 162.199 327.585 162.642 327.507 162.823C327.429 163.004 327.376 163.131 327.347 163.205C327.316 163.269 327.224 163.379 327.071 163.533C326.924 163.676 326.747 163.775 326.539 163.831C326.339 163.884 326.142 163.89 325.946 163.848C325.757 163.795 325.614 163.735 325.518 163.666L325.371 163.551C325.131 163.38 324.648 163.01 323.922 162.442C323.195 161.865 322.801 161.556 322.742 161.516L323.931 165.955C323.985 166.157 324.017 166.313 324.028 166.424C324.044 166.523 324.033 166.643 323.993 166.786C323.921 167.059 323.599 167.273 323.028 167.426C322.475 167.574 322.099 167.548 321.9 167.347C321.794 167.243 321.718 167.141 321.672 167.041C321.635 166.938 321.588 166.781 321.531 166.57L319.572 159.259C319.518 159.057 319.483 158.906 319.466 158.807C319.456 158.697 319.469 158.566 319.506 158.415C319.581 158.15 319.904 157.942 320.475 157.789C320.72 157.723 320.937 157.698 321.125 157.713C321.321 157.717 321.454 157.743 321.525 157.79L321.627 157.847L325.766 160.946C326.777 158.557 327.456 156.977 327.803 156.206C327.894 155.928 328.225 155.712 328.796 155.559C329.376 155.404 329.761 155.427 329.952 155.631Z" fill="black"/>
<path d="M335.461 161.609L339.648 160.487C339.857 160.432 340.013 160.399 340.117 160.39C340.229 160.37 340.362 160.376 340.516 160.41C340.794 160.467 341.008 160.777 341.159 161.339C341.323 161.954 341.252 162.359 340.945 162.554C340.805 162.648 340.577 162.738 340.259 162.823L334.875 164.265C334.241 164.435 333.825 164.368 333.626 164.064C333.534 163.938 333.447 163.721 333.365 163.414L331.402 156.089C331.282 155.641 331.287 155.315 331.417 155.111C331.544 154.898 331.848 154.727 332.329 154.598L337.686 153.163C337.894 153.107 338.05 153.075 338.155 153.065C338.266 153.045 338.399 153.052 338.554 153.086C338.831 153.143 339.046 153.453 339.196 154.015C339.361 154.63 339.29 155.035 338.983 155.23C338.843 155.324 338.614 155.413 338.297 155.498L334.123 156.617L334.479 157.947L337.171 157.226C337.38 157.17 337.536 157.138 337.641 157.128C337.752 157.108 337.885 157.115 338.039 157.149C338.317 157.206 338.531 157.516 338.682 158.078C338.847 158.693 338.771 159.099 338.455 159.296C338.315 159.39 338.086 159.48 337.769 159.565L335.104 160.279L335.461 161.609Z" fill="black"/>
<path d="M345.319 156.271C347.052 157.191 348.295 157.897 349.049 158.392C349.436 158.637 349.659 158.873 349.72 159.102C349.779 159.321 349.669 159.633 349.388 160.038C349.106 160.434 348.847 160.663 348.611 160.726C348.384 160.787 348.059 160.676 347.633 160.395L343.756 157.89L344.445 160.459C344.501 160.67 344.533 160.826 344.541 160.927C344.558 161.026 344.548 161.151 344.511 161.302C344.447 161.574 344.125 161.787 343.545 161.942C342.911 162.112 342.495 162.045 342.296 161.74C342.204 161.614 342.117 161.398 342.035 161.09L340.072 153.766C340.018 153.564 339.983 153.413 339.966 153.314C339.956 153.204 339.969 153.073 340.006 152.922C340.07 152.651 340.391 152.438 340.972 152.282C341.606 152.112 342.026 152.174 342.231 152.468C342.316 152.605 342.4 152.827 342.482 153.134L343.156 155.65C344.029 153.976 344.731 152.607 345.261 151.542C345.482 151.097 345.71 150.843 345.946 150.78C346.182 150.717 346.522 150.791 346.967 151.001C347.41 151.202 347.661 151.417 347.723 151.645C347.781 151.865 347.716 152.165 347.526 152.545C347.158 153.274 346.559 154.301 345.729 155.625L345.319 156.271Z" fill="black"/>
<path d="M354.18 149.477L359.821 155.845C360.055 156.102 360.192 156.305 360.232 156.455C360.317 156.771 360.13 157.127 359.673 157.522C359.405 157.754 359.18 157.894 358.999 157.943C358.826 157.989 358.671 157.988 358.532 157.941C358.402 157.891 358.298 157.829 358.22 157.756C358.151 157.68 358.048 157.567 357.91 157.416L356.822 156.182L353.056 157.191L352.73 158.803C352.687 159.003 352.648 159.15 352.615 159.244C352.591 159.335 352.532 159.44 352.437 159.56C352.35 159.668 352.215 159.746 352.034 159.795C351.862 159.841 351.602 159.831 351.253 159.764C350.662 159.659 350.324 159.448 350.239 159.132C350.199 158.983 350.216 158.738 350.29 158.398L351.988 150.051C352.033 149.822 352.139 149.62 352.306 149.443C352.481 149.264 352.682 149.145 352.909 149.084C353.398 148.953 353.822 149.084 354.18 149.477ZM353.926 152.934L353.512 154.979L355.321 154.495L353.926 152.934Z" fill="black"/>
<path d="M370.508 114.607V123.504H290.008V114.607C290.008 113.717 290.183 112.835 290.523 112.013C290.864 111.19 291.363 110.443 291.993 109.813C292.622 109.184 293.37 108.684 294.192 108.344C295.015 108.003 295.896 107.828 296.787 107.828H363.729C364.619 107.828 365.501 108.003 366.323 108.344C367.146 108.684 367.893 109.184 368.523 109.813C369.152 110.443 369.652 111.19 369.992 112.013C370.333 112.835 370.508 113.717 370.508 114.607Z" fill="#B3B3B3"/>
<path d="M531.26 126.292C530.796 124.792 530.008 123.412 528.952 122.249C527.896 121.087 526.598 120.17 525.15 119.563C523.701 118.956 522.137 118.674 520.568 118.737C518.999 118.8 517.462 119.206 516.067 119.927L423.97 86.8848L419.914 109.892L511.717 135.137C513.084 137.401 515.234 139.085 517.759 139.869C520.284 140.654 523.009 140.485 525.418 139.395C527.827 138.305 529.752 136.369 530.829 133.954C531.905 131.539 532.059 128.813 531.26 126.292V126.292Z" fill="#FFB8B8"/>
<path opacity="0.2" d="M531.26 126.292C530.796 124.792 530.008 123.412 528.952 122.249C527.896 121.087 526.598 120.17 525.15 119.563C523.701 118.956 522.137 118.674 520.568 118.737C518.999 118.8 517.462 119.206 516.067 119.927L423.97 86.8848L419.914 109.892L511.717 135.137C513.084 137.401 515.234 139.085 517.759 139.869C520.284 140.654 523.009 140.485 525.418 139.395C527.827 138.305 529.752 136.369 530.829 133.954C531.905 131.539 532.059 128.813 531.26 126.292V126.292Z" fill="black"/>
<path d="M440.319 91.0764L431.622 113.797C431.374 114.443 430.991 115.029 430.496 115.513C430.002 115.998 429.409 116.371 428.758 116.606C428.107 116.84 427.413 116.932 426.723 116.875C426.034 116.817 425.364 116.612 424.761 116.272L403.625 104.376C400.325 103.091 397.669 100.55 396.24 97.3101C394.81 94.07 394.724 90.3954 396 87.0918C397.275 83.7882 399.809 81.1253 403.045 79.6867C406.281 78.2481 409.955 78.1514 413.262 79.4176L436.864 84.6523C437.54 84.8024 438.176 85.0963 438.728 85.5141C439.279 85.9319 439.735 86.4638 440.063 87.0734C440.39 87.6831 440.583 88.3562 440.627 89.047C440.671 89.7378 440.566 90.4299 440.319 91.0764V91.0764Z" fill="#00BFA6"/>
<path d="M538.508 147.328L505.508 162.328L509.84 178.639C518.207 210.137 520.427 242.951 516.38 275.289V275.289L540.508 280.328L560.508 229.328L553.508 171.328L538.508 147.328Z" fill="#00BFA6"/>
<path d="M603.26 222.828C581.578 222.828 563.908 238.59 563.051 258.328H643.469C642.611 238.59 624.942 222.828 603.26 222.828Z" fill="#3F3D56"/>
<path d="M586.382 226.23C585.253 137.132 534.51 145.329 534.51 145.329C534.51 145.329 535.459 173.062 535.915 173.925C568.251 235.104 514.885 306.828 446.955 293.633C445.675 293.385 444.444 293.132 443.264 292.876C434.657 291.079 427.057 286.071 422.012 278.87C416.966 271.67 414.852 262.817 416.101 254.114C422.792 200.378 389.51 201.329 389.51 201.329H340.844L315.57 178.583C314.678 177.78 313.603 177.208 312.439 176.917C311.274 176.625 310.057 176.624 308.891 176.912C307.726 177.2 306.65 177.769 305.755 178.57C304.861 179.37 304.177 180.378 303.762 181.504L300.51 190.329C300.51 190.329 252.51 195.329 256.51 242.329H271.35C271.314 243.664 271.368 245.001 271.51 246.329L382.261 245.428C388.753 245.376 394.483 250.636 394.51 257.128C394.517 258.709 394.205 260.274 393.592 261.731C392.98 263.188 392.08 264.507 390.946 265.608C389.812 266.71 388.468 267.571 386.994 268.14C385.519 268.71 383.945 268.977 382.366 268.924L364.51 268.329C359.01 292.829 372.51 309.329 387.385 319.704C401.39 329.331 418.009 334.435 435.003 334.329H483.51C546.51 334.329 557.51 281.329 557.51 281.329C590.51 267.329 586.382 226.23 586.382 226.23Z" fill="#3F3D56"/>
<path d="M600.258 363.328C631.324 363.328 656.508 338.144 656.508 307.078C656.508 276.012 631.324 250.828 600.258 250.828C569.192 250.828 544.008 276.012 544.008 307.078C544.008 338.144 569.192 363.328 600.258 363.328Z" fill="#3F3D56"/>
<path d="M600.259 320.866C607.874 320.866 614.046 314.694 614.046 307.08C614.046 299.466 607.874 293.293 600.259 293.293C592.645 293.293 586.473 299.466 586.473 307.08C586.473 314.694 592.645 320.866 600.259 320.866Z" fill="white"/>
<path d="M316.258 363.328C352.018 363.328 381.008 334.339 381.008 298.578C381.008 262.818 352.018 233.828 316.258 233.828C280.497 233.828 251.508 262.818 251.508 298.578C251.508 334.339 280.497 363.328 316.258 363.328Z" fill="#3F3D56"/>
<path d="M316.261 314.449C325.026 314.449 332.131 307.344 332.131 298.579C332.131 289.814 325.026 282.709 316.261 282.709C307.496 282.709 300.391 289.814 300.391 298.579C300.391 307.344 307.496 314.449 316.261 314.449Z" fill="white"/>
<path d="M505.604 166.762L493.73 134.513C493.112 132.832 492.83 131.046 492.902 129.256C492.973 127.466 493.396 125.708 494.147 124.082C494.898 122.456 495.962 120.994 497.278 119.779C498.594 118.564 500.137 117.621 501.817 117.002L535.857 104.471C538.815 103.382 541.958 102.886 545.107 103.011C548.255 103.137 551.349 103.881 554.21 105.203C557.071 106.524 559.644 108.395 561.782 110.711C563.92 113.026 565.58 115.74 566.669 118.698C567.651 121.352 568.153 124.16 568.15 126.99C568.138 130.584 567.324 134.129 565.77 137.369C564.215 140.609 561.958 143.462 559.163 145.72C557.143 147.34 554.874 148.62 552.442 149.509L505.604 166.762Z" fill="#3F3D56"/>
<path d="M567.648 126.989C567.645 130.509 566.853 133.984 565.33 137.158C563.807 140.332 561.592 143.124 558.848 145.329C554.637 144.218 550.719 142.204 547.366 139.426C544.012 136.648 541.304 133.173 539.429 129.243C537.555 125.313 536.558 121.021 536.51 116.667C536.461 112.313 537.361 108 539.148 104.029C542.578 103.283 546.131 103.315 549.547 104.122C552.963 104.929 556.155 106.491 558.889 108.693C561.622 110.895 563.828 113.682 565.344 116.848C566.859 120.014 567.647 123.479 567.648 126.989V126.989Z" fill="#00BFA6"/>
<path d="M265.008 248.828C272.74 248.828 279.008 241.217 279.008 231.828C279.008 222.439 272.74 214.828 265.008 214.828C257.276 214.828 251.008 222.439 251.008 231.828C251.008 241.217 257.276 248.828 265.008 248.828Z" fill="#00BFA6"/>
<path d="M450.072 292.004H462.332L468.165 260.207L450.07 260.208L450.072 292.004Z" fill="#FFB8B8"/>
<path d="M446.945 288.003L471.089 288.002H471.09C473.111 288.002 475.111 288.4 476.978 289.173C478.845 289.946 480.541 291.08 481.97 292.508C483.399 293.937 484.532 295.633 485.305 297.5C486.079 299.367 486.477 301.368 486.477 303.388V303.888L446.946 303.89L446.945 288.003Z" fill="#2F2E41"/>
<path d="M464.303 278.954C464.16 278.954 464.017 278.947 463.873 278.934L446.906 277.698C446.22 277.635 445.558 277.414 444.97 277.054C444.383 276.694 443.886 276.204 443.518 275.621C443.15 275.039 442.92 274.379 442.847 273.694C442.774 273.009 442.86 272.316 443.097 271.669L465.804 220.654C465.966 220.2 466.032 219.716 465.998 219.234C465.964 218.753 465.831 218.283 465.607 217.855C465.384 217.423 465.071 217.042 464.69 216.739C464.309 216.436 463.868 216.216 463.396 216.096C452.719 213.305 425.324 205.873 401.61 197.178C391.45 193.452 385.051 188.068 382.591 181.176C379.348 172.089 384.146 163.802 384.351 163.454L384.512 163.182L406.827 165.21L431.018 167.268L484.032 195.695C488.474 198.098 491.848 202.085 493.482 206.863C495.116 211.641 494.891 216.86 492.85 221.479L468.409 276.287C468.056 277.081 467.48 277.755 466.751 278.228C466.022 278.702 465.172 278.954 464.303 278.954Z" fill="#2F2E41"/>
<path d="M410.706 64.2803C424.27 64.2803 435.267 53.2839 435.267 39.7192C435.267 26.1546 424.27 15.1582 410.706 15.1582C397.141 15.1582 386.145 26.1546 386.145 39.7192C386.145 53.2839 397.141 64.2803 410.706 64.2803Z" fill="#FFB8B8"/>
<path d="M443.072 295.004H455.332L461.165 263.207L443.07 263.208L443.072 295.004Z" fill="#FFB8B8"/>
<path d="M439.945 291.003L464.089 291.002H464.09C466.111 291.002 468.111 291.4 469.978 292.173C471.845 292.946 473.541 294.08 474.97 295.508C476.399 296.937 477.532 298.633 478.305 300.5C479.079 302.367 479.477 304.368 479.477 306.388V306.888L439.946 306.89L439.945 291.003Z" fill="#2F2E41"/>
<path d="M457.303 281.954C457.16 281.954 457.017 281.947 456.873 281.934L439.906 280.698C439.22 280.635 438.558 280.414 437.97 280.054C437.383 279.694 436.886 279.204 436.518 278.621C436.15 278.039 435.92 277.379 435.847 276.694C435.774 276.009 435.86 275.316 436.097 274.669L458.804 223.654C458.966 223.2 459.032 222.716 458.998 222.234C458.964 221.753 458.831 221.283 458.607 220.855C458.384 220.423 458.071 220.042 457.69 219.739C457.309 219.436 456.868 219.216 456.396 219.096C445.719 216.305 418.324 208.873 394.61 200.178C384.45 196.452 378.051 191.068 375.591 184.176C372.348 175.089 377.146 166.802 377.351 166.454L377.512 166.182L399.827 168.21L424.018 170.268L477.032 198.695C481.474 201.098 484.848 205.085 486.482 209.863C488.116 214.641 487.891 219.86 485.85 224.479L461.409 279.287C461.056 280.081 460.48 280.755 459.751 281.228C459.022 281.702 458.172 281.954 457.303 281.954Z" fill="#2F2E41"/>
<path d="M418.281 78.209L392.281 69.209C392.281 69.209 375.959 81.749 383.8 112.858C387.894 128.911 386.701 145.856 380.4 161.178C379.641 163.073 378.767 164.921 377.781 166.709C377.781 166.709 406.781 201.709 433.781 175.709L423.281 125.209C423.281 125.209 439.781 91.709 418.281 78.209Z" fill="#00BFA6"/>
<path d="M413.755 65.1165C410.259 59.8842 407.5 52.629 411.349 47.6506C415.148 42.7365 422.641 43.4605 428.46 41.286C436.564 38.2573 441.264 28.7367 439.798 20.2103C438.332 11.684 431.488 4.61591 423.334 1.72388C415.18 -1.16815 405.985 -0.227596 398.001 3.10275C388.171 7.20245 379.74 15.133 376.204 25.179C372.668 35.225 374.558 47.2871 381.893 55.0086C389.757 63.287 402.099 65.4932 413.516 65.3593" fill="#2F2E41"/>
<path d="M390.909 20.4838C386.504 24.0697 379.784 22.477 375.055 19.3299C370.327 16.1829 366.49 11.7017 361.374 9.23427C352.355 4.88432 341.451 7.77604 332.673 12.5944C323.895 17.4127 316.114 24.0694 306.842 27.8505C297.569 31.6317 285.738 31.8186 278.717 24.6789C276.989 29.6847 276.848 35.1018 278.312 40.1908C279.777 45.2799 282.776 49.7931 286.9 53.1148C291.024 56.4365 296.073 58.4048 301.357 58.7512C306.642 59.0976 311.904 57.8052 316.427 55.0504C326.586 48.862 332.198 35.8867 343.593 32.4711C349.898 30.581 356.669 32.1033 363.042 33.7521C369.415 35.4009 376.06 37.1825 382.491 35.7789C388.922 34.3752 394.938 28.5957 394.12 22.0641L390.909 20.4838Z" fill="#2F2E41"/>
<path d="M530.038 125.291C529.392 123.859 528.44 122.587 527.249 121.563C526.058 120.54 524.656 119.79 523.144 119.367C521.632 118.943 520.045 118.856 518.495 119.112C516.946 119.369 515.472 119.961 514.176 120.849L418.706 99.4219L417.52 122.754L511.736 136.479C513.372 138.557 515.713 139.963 518.315 140.43C520.918 140.897 523.601 140.393 525.857 139.014C528.113 137.635 529.785 135.476 530.555 132.947C531.326 130.418 531.142 127.693 530.038 125.291V125.291Z" fill="#FFB8B8"/>
<path d="M435.447 101.565L429.62 125.185C429.454 125.857 429.145 126.485 428.715 127.027C428.284 127.569 427.742 128.012 427.125 128.325C426.507 128.639 425.83 128.816 425.138 128.844C424.447 128.872 423.757 128.75 423.117 128.488L400.674 119.29C397.239 118.424 394.287 116.231 392.467 113.191C390.647 110.152 390.107 106.514 390.965 103.077C391.824 99.6393 394.011 96.6829 397.047 94.8563C400.083 93.0297 403.719 92.482 407.159 93.3335L431.226 95.616C431.915 95.6816 432.582 95.8949 433.181 96.2414C433.781 96.5879 434.298 97.0595 434.699 97.624C435.099 98.1886 435.373 98.8329 435.502 99.5129C435.631 100.193 435.612 100.893 435.447 101.565V101.565Z" fill="#00BFA6"/>
<path d="M519.008 143.828C522.874 143.828 526.008 140.694 526.008 136.828C526.008 132.962 522.874 129.828 519.008 129.828C515.142 129.828 512.008 132.962 512.008 136.828C512.008 140.694 515.142 143.828 519.008 143.828Z" fill="#00BFA6"/>
<path d="M829 363.828C828.999 364.093 828.894 364.347 828.706 364.534C828.519 364.722 828.265 364.827 828 364.828H1C0.734784 364.828 0.480429 364.723 0.292892 364.535C0.105356 364.348 0 364.093 0 363.828C0 363.563 0.105356 363.309 0.292892 363.121C0.480429 362.933 0.734784 362.828 1 362.828H828C828.265 362.829 828.519 362.935 828.706 363.122C828.894 363.309 828.999 363.563 829 363.828V363.828Z" fill="#3F3D56"/>
</g>
<defs>
<clipPath id="clip0_718_2">
<rect width="829" height="364.829" fill="white"/>
</clipPath>
<clipPath id="clip1_718_2">
<rect width="10.3339" height="9.60724" fill="white" transform="matrix(0.748935 -0.662643 0.751991 0.659173 301.594 160.93)"/>
</clipPath>
</defs>
</svg>
